<svg width="1514" height="252" viewBox="0 0 1514 252" fill="none" xmlns="http://www.w3.org/2000/svg">
<path d="M129.279 124.392V127.273H105.279V124.392H129.279ZM153.279 124.392V127.273H129.279V124.392H153.279ZM177.279 124.392V127.273H153.279V124.392H177.279ZM201.279 124.392V127.273H177.279V124.392H201.279ZM225.279 124.392V127.273H201.279V124.392H225.279ZM249.279 124.392V127.273H225.279V124.392H249.279ZM273.279 124.392V127.273H249.279V124.392H273.279ZM297.279 124.392V127.273H273.279V124.392H297.279ZM321.279 124.392V127.273H297.279V124.392H321.279ZM345.279 124.392V127.273H321.279V124.392H345.279ZM369.279 124.392V127.273H345.279V124.392H369.279ZM393.279 124.392V127.273H369.279V124.392H393.279ZM417.279 124.392V127.273H393.279V124.392H417.279ZM441.279 124.392V127.273H417.279V124.392H441.279ZM465.279 124.392V127.273H441.279V124.392H465.279ZM489.279 124.392V127.273H465.279V124.392H489.279ZM513.279 124.392V127.273H489.279V124.392H513.279ZM537.279 124.392V127.273H513.279V124.392H537.279ZM561.279 124.392V127.273H537.279V124.392H561.279ZM585.279 124.392V127.273H561.279V124.392H585.279ZM609.279 124.392V127.273H585.279V124.392H609.279ZM633.279 124.392V127.273H609.279V124.392H633.279ZM657.279 124.392V127.273H633.279V124.392H657.279ZM681.279 124.392V127.273H657.279V124.392H681.279ZM705.279 124.392V127.273H681.279V124.392H705.279ZM729.279 124.392V127.273H705.279V124.392H729.279ZM753.279 124.392V127.273H729.279V124.392H753.279ZM777.279 124.392V127.273H753.279V124.392H777.279ZM801.279 124.392V127.273H777.279V124.392H801.279ZM825.279 124.392V127.273H801.279V124.392H825.279ZM849.279 124.392V127.273H825.279V124.392H849.279ZM873.279 124.392V127.273H849.279V124.392H873.279ZM897.279 124.392V127.273H873.279V124.392H897.279ZM921.279 124.392V127.273H897.279V124.392H921.279ZM945.279 124.392V127.273H921.279V124.392H945.279ZM969.279 124.392V127.273H945.279V124.392H969.279ZM993.279 124.392V127.273H969.279V124.392H993.279ZM1017.28 124.392V127.273H993.279V124.392H1017.28ZM1041.28 124.392V127.273H1017.28V124.392H1041.28ZM1065.28 124.392V127.273H1041.28V124.392H1065.28ZM1089.28 124.392V127.273H1065.28V124.392H1089.28ZM1113.28 124.392V127.273H1089.28V124.392H1113.28ZM1137.28 124.392V127.273H1113.28V124.392H1137.28ZM1161.28 124.392V127.273H1137.28V124.392H1161.28ZM1185.28 124.392V127.273H1161.28V124.392H1185.28ZM1209.28 124.392V127.273H1185.28V124.392H1209.28ZM1233.28 124.392V127.273H1209.28V124.392H1233.28ZM1257.28 124.392V127.273H1233.28V124.392H1257.28ZM1281.28 124.392V127.273H1257.28V124.392H1281.28ZM1305.28 124.392V127.273H1281.28V124.392H1305.28ZM1329.28 124.392V127.273H1305.28V124.392H1329.28ZM1353.28 124.392V127.273H1329.28V124.392H1353.28ZM1377.28 124.392V127.273H1353.28V124.392H1377.28ZM1401.28 124.392V127.273H1377.28V124.392H1401.28ZM1425.28 124.392V127.273H1401.28V124.392H1425.28ZM1449.28 124.392V127.273H1425.28V124.392H1449.28ZM1473.28 124.392V127.273H1449.28V124.392H1473.28ZM1497.28 124.392V127.273H1473.28V124.392H1497.28Z" fill="#61C8F1"/>
<g filter="url(#filter0_d_3_390)">
<path d="M123.774 201.001C173.756 201.001 214.274 159.363 214.274 108.001C214.274 56.6385 173.756 15.001 123.774 15.001C73.7923 15.001 33.274 56.6385 33.274 108.001C33.274 159.363 73.7923 201.001 123.774 201.001Z" fill="white"/>
<path d="M123.774 200.501C173.48 200.501 213.774 159.087 213.774 108.001C213.774 56.9146 173.48 15.501 123.774 15.501C74.0684 15.501 33.774 56.9146 33.774 108.001C33.774 159.087 74.0684 200.501 123.774 200.501Z" stroke="#61C8F1"/>
</g>
<path d="M123.156 99.4649C135.237 99.4649 145.03 89.8981 145.03 78.0969C145.03 66.2957 135.237 56.7289 123.156 56.7289C111.075 56.7289 101.282 66.2957 101.282 78.0969C101.282 89.8981 111.075 99.4649 123.156 99.4649Z" fill="#61C8F1"/>
<path d="M97.384 153C93.7263 153.018 90.2108 151.584 87.6103 149.011C85.0097 146.439 83.5367 142.94 83.515 139.282C83.515 120.48 99.115 105.239 118.364 105.239H127.948C147.194 105.239 162.796 120.48 162.796 139.282C162.774 142.94 161.301 146.439 158.701 149.011C156.1 151.584 152.585 153.018 148.927 153H97.384Z" fill="#61C8F1"/>
<path d="M20.507 230H17.8649C17.7087 229.24 17.4352 228.572 17.0446 227.997C16.6611 227.422 16.1923 226.939 15.6384 226.548C15.0915 226.151 14.4842 225.852 13.8166 225.653C13.149 225.455 12.453 225.355 11.7286 225.355C10.4075 225.355 9.2108 225.689 8.13836 226.357C7.07302 227.024 6.2243 228.008 5.5922 229.308C4.9672 230.607 4.6547 232.202 4.6547 234.091C4.6547 235.98 4.9672 237.575 5.5922 238.874C6.2243 240.174 7.07302 241.158 8.13836 241.825C9.2108 242.493 10.4075 242.827 11.7286 242.827C12.453 242.827 13.149 242.727 13.8166 242.528C14.4842 242.33 15.0915 242.035 15.6384 241.644C16.1923 241.246 16.6611 240.76 17.0446 240.185C17.4352 239.602 17.7087 238.935 17.8649 238.182H20.507C20.3081 239.297 19.9459 240.295 19.4203 241.175C18.8948 242.056 18.2413 242.805 17.4601 243.423C16.6788 244.034 15.8017 244.499 14.8287 244.819C13.8628 245.138 12.8294 245.298 11.7286 245.298C9.86777 245.298 8.21294 244.844 6.76407 243.935C5.31521 243.026 4.17529 241.733 3.34433 240.057C2.51336 238.381 2.09788 236.392 2.09788 234.091C2.09788 231.79 2.51336 229.801 3.34433 228.125C4.17529 226.449 5.31521 225.156 6.76407 224.247C8.21294 223.338 9.86777 222.884 11.7286 222.884C12.8294 222.884 13.8628 223.043 14.8287 223.363C15.8017 223.683 16.6788 224.151 17.4601 224.769C18.2413 225.38 18.8948 226.126 19.4203 227.006C19.9459 227.88 20.3081 228.878 20.507 230ZM24.4354 245V228.636H26.8644V231.108H27.0348C27.3331 230.298 27.8729 229.641 28.6542 229.137C29.4354 228.633 30.3161 228.381 31.2962 228.381C31.4809 228.381 31.7117 228.384 31.9887 228.391C32.2657 228.398 32.4752 228.409 32.6172 228.423V230.98C32.532 230.959 32.3367 230.927 32.0313 230.884C31.733 230.835 31.4169 230.81 31.0831 230.81C30.2877 230.81 29.5775 230.977 28.9525 231.31C28.3346 231.637 27.8445 232.092 27.4823 232.674C27.1272 233.249 26.9496 233.906 26.9496 234.645V245H24.4354ZM41.9603 245.341C40.3836 245.341 39.0235 244.993 37.88 244.297C36.7437 243.594 35.8665 242.614 35.2486 241.357C34.6378 240.092 34.3324 238.622 34.3324 236.946C34.3324 235.27 34.6378 233.793 35.2486 232.514C35.8665 231.229 36.7259 230.227 37.8267 229.51C38.9347 228.786 40.2273 228.423 41.7046 228.423C42.5569 228.423 43.3985 228.565 44.2294 228.849C45.0604 229.134 45.8168 229.595 46.4986 230.234C47.1804 230.866 47.7238 231.705 48.1286 232.749C48.5334 233.793 48.7358 235.078 48.7358 236.605V237.67H36.1222V235.497H46.179C46.179 234.574 45.9944 233.75 45.625 233.026C45.2628 232.301 44.7444 231.729 44.0696 231.31C43.402 230.891 42.6137 230.682 41.7046 230.682C40.7032 230.682 39.8367 230.93 39.1052 231.428C38.3807 231.918 37.8232 232.557 37.4326 233.345C37.0419 234.134 36.8466 234.979 36.8466 235.881V237.33C36.8466 238.565 37.0597 239.613 37.4858 240.472C37.9191 241.325 38.5192 241.974 39.2863 242.422C40.0533 242.862 40.9446 243.082 41.9603 243.082C42.6208 243.082 43.2174 242.99 43.75 242.805C44.2898 242.614 44.755 242.33 45.1456 241.953C45.5363 241.57 45.8381 241.094 46.0512 240.526L48.4802 241.207C48.2245 242.031 47.7948 242.756 47.1911 243.381C46.5874 243.999 45.8417 244.482 44.9539 244.83C44.0661 245.17 43.0682 245.341 41.9603 245.341ZM57.3758 245.384C56.3388 245.384 55.3978 245.188 54.5526 244.798C53.7074 244.4 53.0363 243.828 52.5391 243.082C52.0419 242.33 51.7934 241.42 51.7934 240.355C51.7934 239.418 51.978 238.658 52.3473 238.075C52.7167 237.486 53.2103 237.024 53.8282 236.69C54.4461 236.357 55.1279 236.108 55.8736 235.945C56.6265 235.774 57.3829 235.639 58.1428 235.54C59.1371 235.412 59.9432 235.316 60.5611 235.252C61.1861 235.181 61.6407 235.064 61.9248 234.901C62.216 234.737 62.3616 234.453 62.3616 234.048V233.963C62.3616 232.912 62.0739 232.095 61.4986 231.513C60.9304 230.93 60.0675 230.639 58.9098 230.639C57.7096 230.639 56.7685 230.902 56.0867 231.428C55.4049 231.953 54.9255 232.514 54.6485 233.111L52.2621 232.259C52.6883 231.264 53.2564 230.49 53.9667 229.936C54.684 229.375 55.4652 228.984 56.3104 228.764C57.1627 228.537 58.0008 228.423 58.8246 228.423C59.3502 228.423 59.9539 228.487 60.6357 228.615C61.3246 228.736 61.9887 228.988 62.6279 229.371C63.2742 229.755 63.8104 230.334 64.2366 231.108C64.6627 231.882 64.8758 232.919 64.8758 234.219V245H62.3616V242.784H62.2337C62.0633 243.139 61.7792 243.519 61.3814 243.924C60.9837 244.329 60.4546 244.673 59.7941 244.957C59.1336 245.241 58.3275 245.384 57.3758 245.384ZM57.7593 243.125C58.7536 243.125 59.5917 242.93 60.2735 242.539C60.9624 242.148 61.4809 241.644 61.8289 241.026C62.184 240.408 62.3616 239.759 62.3616 239.077V236.776C62.255 236.903 62.0206 237.021 61.6584 237.127C61.3033 237.227 60.8914 237.315 60.4226 237.393C59.961 237.464 59.51 237.528 59.0696 237.585C58.6364 237.635 58.2848 237.678 58.015 237.713C57.3616 237.798 56.7508 237.937 56.1826 238.129C55.6215 238.313 55.1669 238.594 54.8189 238.97C54.478 239.339 54.3076 239.844 54.3076 240.483C54.3076 241.357 54.6307 242.017 55.277 242.464C55.9304 242.905 56.7579 243.125 57.7593 243.125ZM76.5812 228.636V230.767H68.1011V228.636H76.5812ZM70.5727 224.716H73.0869V240.312C73.0869 241.023 73.1899 241.555 73.3958 241.911C73.6089 242.259 73.8788 242.493 74.2055 242.614C74.5393 242.727 74.8908 242.784 75.2602 242.784C75.5372 242.784 75.7644 242.77 75.942 242.741C76.1195 242.706 76.2616 242.678 76.3681 242.656L76.8795 244.915C76.709 244.979 76.4711 245.043 76.1657 245.107C75.8603 245.178 75.4732 245.213 75.0045 245.213C74.2943 245.213 73.5982 245.06 72.9164 244.755C72.2417 244.45 71.6806 243.984 71.2332 243.359C70.7928 242.734 70.5727 241.946 70.5727 240.994V224.716ZM87.0482 245.341C85.4715 245.341 84.1114 244.993 82.9679 244.297C81.8315 243.594 80.9544 242.614 80.3365 241.357C79.7257 240.092 79.4203 238.622 79.4203 236.946C79.4203 235.27 79.7257 233.793 80.3365 232.514C80.9544 231.229 81.8138 230.227 82.9146 229.51C84.0226 228.786 85.3152 228.423 86.7925 228.423C87.6448 228.423 88.4864 228.565 89.3173 228.849C90.1483 229.134 90.9047 229.595 91.5865 230.234C92.2683 230.866 92.8117 231.705 93.2165 232.749C93.6213 233.793 93.8237 235.078 93.8237 236.605V237.67H81.2101V235.497H91.2669C91.2669 234.574 91.0823 233.75 90.7129 233.026C90.3507 232.301 89.8323 231.729 89.1575 231.31C88.4899 230.891 87.7016 230.682 86.7925 230.682C85.7911 230.682 84.9246 230.93 84.193 231.428C83.4686 231.918 82.9111 232.557 82.5205 233.345C82.1298 234.134 81.9345 234.979 81.9345 235.881V237.33C81.9345 238.565 82.1476 239.613 82.5737 240.472C83.007 241.325 83.6071 241.974 84.3742 242.422C85.1412 242.862 86.0325 243.082 87.0482 243.082C87.7087 243.082 88.3053 242.99 88.8379 242.805C89.3777 242.614 89.8429 242.33 90.2335 241.953C90.6242 241.57 90.926 241.094 91.1391 240.526L93.568 241.207C93.3124 242.031 92.8827 242.756 92.279 243.381C91.6753 243.999 90.9296 244.482 90.0418 244.83C89.154 245.17 88.1561 245.341 87.0482 245.341ZM104.552 223.182H107.577L113.628 233.366H113.884L119.935 223.182H122.961L115.077 236.009V245H112.435V236.009L104.552 223.182ZM130.37 245.341C128.893 245.341 127.597 244.989 126.482 244.286C125.374 243.583 124.507 242.599 123.882 241.335C123.264 240.071 122.955 238.594 122.955 236.903C122.955 235.199 123.264 233.711 123.882 232.44C124.507 231.168 125.374 230.181 126.482 229.478C127.597 228.775 128.893 228.423 130.37 228.423C131.848 228.423 133.14 228.775 134.248 229.478C135.363 230.181 136.23 231.168 136.848 232.44C137.473 233.711 137.785 235.199 137.785 236.903C137.785 238.594 137.473 240.071 136.848 241.335C136.23 242.599 135.363 243.583 134.248 244.286C133.14 244.989 131.848 245.341 130.37 245.341ZM130.37 243.082C131.492 243.082 132.416 242.795 133.14 242.219C133.865 241.644 134.401 240.888 134.749 239.95C135.097 239.013 135.271 237.997 135.271 236.903C135.271 235.81 135.097 234.79 134.749 233.846C134.401 232.901 133.865 232.138 133.14 231.555C132.416 230.973 131.492 230.682 130.37 230.682C129.248 230.682 128.325 230.973 127.6 231.555C126.876 232.138 126.34 232.901 125.992 233.846C125.644 234.79 125.47 235.81 125.47 236.903C125.47 237.997 125.644 239.013 125.992 239.95C126.34 240.888 126.876 241.644 127.6 242.219C128.325 242.795 129.248 243.082 130.37 243.082ZM151.935 238.31V228.636H154.45V245H151.935V242.23H151.765C151.381 243.061 150.785 243.768 149.975 244.35C149.166 244.925 148.143 245.213 146.907 245.213C145.884 245.213 144.975 244.989 144.18 244.542C143.384 244.087 142.759 243.406 142.305 242.496C141.85 241.58 141.623 240.426 141.623 239.034V228.636H144.137V238.864C144.137 240.057 144.471 241.009 145.139 241.719C145.813 242.429 146.673 242.784 147.717 242.784C148.342 242.784 148.977 242.624 149.624 242.305C150.277 241.985 150.824 241.495 151.264 240.835C151.712 240.174 151.935 239.332 151.935 238.31ZM159.055 245V228.636H161.484V231.108H161.654C161.952 230.298 162.492 229.641 163.273 229.137C164.055 228.633 164.935 228.381 165.915 228.381C166.1 228.381 166.331 228.384 166.608 228.391C166.885 228.398 167.094 228.409 167.236 228.423V230.98C167.151 230.959 166.956 230.927 166.65 230.884C166.352 230.835 166.036 230.81 165.702 230.81C164.907 230.81 164.197 230.977 163.572 231.31C162.954 231.637 162.464 232.092 162.101 232.674C161.746 233.249 161.569 233.906 161.569 234.645V245H159.055ZM179.89 245H177.12L185.131 223.182H187.859L195.87 245H193.1L186.58 226.634H186.41L179.89 245ZM180.913 236.477H192.077V238.821H180.913V236.477ZM205.575 245.341C204.041 245.341 202.72 244.979 201.612 244.254C200.504 243.53 199.652 242.532 199.055 241.261C198.459 239.989 198.161 238.537 198.161 236.903C198.161 235.241 198.466 233.775 199.077 232.504C199.695 231.225 200.554 230.227 201.655 229.51C202.763 228.786 204.055 228.423 205.533 228.423C206.683 228.423 207.72 228.636 208.644 229.062C209.567 229.489 210.323 230.085 210.913 230.852C211.502 231.619 211.868 232.514 212.01 233.537H209.496C209.304 232.791 208.878 232.131 208.217 231.555C207.564 230.973 206.683 230.682 205.575 230.682C204.595 230.682 203.736 230.937 202.997 231.449C202.266 231.953 201.694 232.667 201.282 233.59C200.877 234.506 200.675 235.582 200.675 236.818C200.675 238.082 200.874 239.183 201.271 240.121C201.676 241.058 202.244 241.786 202.976 242.305C203.715 242.823 204.581 243.082 205.575 243.082C206.229 243.082 206.822 242.969 207.354 242.741C207.887 242.514 208.338 242.188 208.707 241.761C209.077 241.335 209.34 240.824 209.496 240.227H212.01C211.868 241.193 211.516 242.063 210.955 242.837C210.401 243.604 209.666 244.215 208.75 244.67C207.841 245.117 206.783 245.341 205.575 245.341ZM222.333 245.341C220.799 245.341 219.478 244.979 218.37 244.254C217.262 243.53 216.41 242.532 215.813 241.261C215.217 239.989 214.918 238.537 214.918 236.903C214.918 235.241 215.224 233.775 215.835 232.504C216.452 231.225 217.312 230.227 218.413 229.51C219.521 228.786 220.813 228.423 222.291 228.423C223.441 228.423 224.478 228.636 225.401 229.062C226.325 229.489 227.081 230.085 227.67 230.852C228.26 231.619 228.626 232.514 228.768 233.537H226.254C226.062 232.791 225.636 232.131 224.975 231.555C224.322 230.973 223.441 230.682 222.333 230.682C221.353 230.682 220.494 230.937 219.755 231.449C219.023 231.953 218.452 232.667 218.04 233.59C217.635 234.506 217.433 235.582 217.433 236.818C217.433 238.082 217.631 239.183 218.029 240.121C218.434 241.058 219.002 241.786 219.734 242.305C220.472 242.823 221.339 243.082 222.333 243.082C222.987 243.082 223.58 242.969 224.112 242.741C224.645 242.514 225.096 242.188 225.465 241.761C225.835 241.335 226.097 240.824 226.254 240.227H228.768C228.626 241.193 228.274 242.063 227.713 242.837C227.159 243.604 226.424 244.215 225.508 244.67C224.599 245.117 223.541 245.341 222.333 245.341ZM239.091 245.341C237.614 245.341 236.318 244.989 235.202 244.286C234.095 243.583 233.228 242.599 232.603 241.335C231.985 240.071 231.676 238.594 231.676 236.903C231.676 235.199 231.985 233.711 232.603 232.44C233.228 231.168 234.095 230.181 235.202 229.478C236.318 228.775 237.614 228.423 239.091 228.423C240.568 228.423 241.861 228.775 242.969 229.478C244.084 230.181 244.95 231.168 245.568 232.44C246.193 233.711 246.506 235.199 246.506 236.903C246.506 238.594 246.193 240.071 245.568 241.335C244.95 242.599 244.084 243.583 242.969 244.286C241.861 244.989 240.568 245.341 239.091 245.341ZM239.091 243.082C240.213 243.082 241.136 242.795 241.861 242.219C242.585 241.644 243.121 240.888 243.47 239.95C243.818 239.013 243.992 237.997 243.992 236.903C243.992 235.81 243.818 234.79 243.47 233.846C243.121 232.901 242.585 232.138 241.861 231.555C241.136 230.973 240.213 230.682 239.091 230.682C237.969 230.682 237.045 230.973 236.321 231.555C235.597 232.138 235.06 232.901 234.712 233.846C234.364 234.79 234.19 235.81 234.19 236.903C234.19 237.997 234.364 239.013 234.712 239.95C235.06 240.888 235.597 241.644 236.321 242.219C237.045 242.795 237.969 243.082 239.091 243.082ZM260.656 238.31V228.636H263.17V245H260.656V242.23H260.486C260.102 243.061 259.506 243.768 258.696 244.35C257.886 244.925 256.864 245.213 255.628 245.213C254.605 245.213 253.696 244.989 252.9 244.542C252.105 244.087 251.48 243.406 251.025 242.496C250.571 241.58 250.344 240.426 250.344 239.034V228.636H252.858V238.864C252.858 240.057 253.192 241.009 253.859 241.719C254.534 242.429 255.393 242.784 256.437 242.784C257.062 242.784 257.698 242.624 258.344 242.305C258.998 241.985 259.545 241.495 259.985 240.835C260.432 240.174 260.656 239.332 260.656 238.31ZM270.289 235.156V245H267.775V228.636H270.204V231.193H270.417C270.801 230.362 271.383 229.695 272.164 229.19C272.946 228.679 273.954 228.423 275.19 228.423C276.298 228.423 277.267 228.651 278.098 229.105C278.929 229.553 279.576 230.234 280.037 231.151C280.499 232.06 280.73 233.21 280.73 234.602V245H278.216V234.773C278.216 233.487 277.882 232.486 277.214 231.768C276.547 231.044 275.63 230.682 274.466 230.682C273.663 230.682 272.946 230.856 272.314 231.204C271.689 231.552 271.195 232.06 270.833 232.727C270.471 233.395 270.289 234.205 270.289 235.156ZM292.441 228.636V230.767H283.96V228.636H292.441ZM286.432 224.716H288.946V240.312C288.946 241.023 289.049 241.555 289.255 241.911C289.468 242.259 289.738 242.493 290.065 242.614C290.399 242.727 290.75 242.784 291.12 242.784C291.397 242.784 291.624 242.77 291.801 242.741C291.979 242.706 292.121 242.678 292.227 242.656L292.739 244.915C292.568 244.979 292.33 245.043 292.025 245.107C291.72 245.178 291.333 245.213 290.864 245.213C290.154 245.213 289.458 245.06 288.776 244.755C288.101 244.45 287.54 243.984 287.093 243.359C286.652 242.734 286.432 241.946 286.432 240.994V224.716Z" fill="#353535"/>
<g filter="url(#filter1_d_3_390)">
<path d="M544.775 201.001C594.757 201.001 635.275 159.363 635.275 108.001C635.275 56.6385 594.757 15.001 544.775 15.001C494.793 15.001 454.275 56.6385 454.275 108.001C454.275 159.363 494.793 201.001 544.775 201.001Z" fill="white"/>
<path d="M544.775 200.501C594.481 200.501 634.775 159.087 634.775 108.001C634.775 56.9146 594.481 15.501 544.775 15.501C495.069 15.501 454.775 56.9146 454.775 108.001C454.775 159.087 495.069 200.501 544.775 200.501Z" stroke="#61C8F1"/>
</g>
<path d="M522.972 95.4939L523.488 95.9939L530.636 89.0459L530.122 88.5459C531.127 86.1911 531.39 83.5864 530.879 81.078C530.367 78.5696 529.104 76.2763 527.258 74.5029C525.374 72.6941 523.008 71.469 520.443 70.9754C517.879 70.4818 515.227 70.7407 512.806 71.7209L521.464 80.1369L514.316 87.0809L505.659 78.6669C504.654 81.0215 504.39 83.6263 504.902 86.1347C505.414 88.6431 506.677 90.9362 508.524 92.7089C510.407 94.5179 512.773 95.7435 515.336 96.2377C517.9 96.7319 520.552 96.4735 522.972 95.4939Z" fill="#FF996C"/>
<path d="M570.435 89.2289L576.935 87.1439L583.011 76.9769L578.627 72.7179L568.166 78.6239L566.022 84.9409L560.601 90.2069L565.014 94.4959L570.435 89.2289Z" fill="#FF996C"/>
<path d="M584.035 140.867C585.041 138.512 585.305 135.908 584.795 133.399C584.284 130.89 583.021 128.597 581.175 126.823C579.291 125.014 576.925 123.789 574.36 123.296C571.796 122.802 569.144 123.061 566.723 124.041L565.941 123.281L558.791 130.228L559.574 130.989C558.569 133.343 558.304 135.948 558.816 138.456C559.328 140.965 560.592 143.258 562.439 145.03C564.322 146.839 566.688 148.064 569.252 148.558C571.816 149.051 574.468 148.793 576.888 147.813L568.231 139.399L575.381 132.457L584.035 140.867Z" fill="#FF996C"/>
<path d="M550.023 132.647H539.537V127.747C538.074 127.346 536.663 126.778 535.331 126.053L531.765 129.52L524.349 122.312L527.915 118.845C527.171 117.558 526.586 116.186 526.171 114.759H521.131V104.568H526.172C526.587 103.142 527.173 101.771 527.915 100.484L524.349 97.018L531.765 89.811L535.331 93.278C536.663 92.5518 538.074 91.9833 539.537 91.584V86.684H550.023V91.584C551.487 91.9828 552.899 92.5513 554.231 93.278L557.799 89.811L565.213 97.018L561.643 100.484C562.389 101.769 562.974 103.141 563.387 104.569H568.431V114.76H563.387C562.975 116.188 562.389 117.56 561.643 118.846L565.211 122.313L557.797 129.521L554.231 126.053C552.899 126.778 551.488 127.346 550.025 127.747V132.647H550.023ZM544.779 98.894C541.882 98.8563 539.088 99.9689 537.01 101.988C534.932 104.007 533.739 106.768 533.693 109.665C533.738 112.562 534.931 115.324 537.009 117.343C539.087 119.363 541.882 120.476 544.779 120.438C547.677 120.476 550.471 119.363 552.549 117.343C554.627 115.324 555.82 112.562 555.865 109.665C555.82 106.768 554.627 104.007 552.549 101.988C550.471 99.9686 547.676 98.856 544.779 98.894Z" fill="#FF996C"/>
<path d="M513.728 148.791L504.51 139.833L522.621 122.235L531.839 131.194L513.728 148.791Z" fill="#FF996C"/>
<path d="M455.824 228.636C455.696 227.557 455.178 226.719 454.268 226.122C453.359 225.526 452.244 225.227 450.923 225.227C449.957 225.227 449.112 225.384 448.388 225.696C447.67 226.009 447.109 226.438 446.705 226.985C446.307 227.532 446.108 228.153 446.108 228.849C446.108 229.432 446.246 229.933 446.523 230.352C446.808 230.763 447.17 231.108 447.61 231.385C448.05 231.655 448.512 231.879 448.995 232.056C449.478 232.227 449.922 232.365 450.327 232.472L452.543 233.068C453.111 233.217 453.743 233.423 454.439 233.686C455.142 233.949 455.813 234.308 456.452 234.762C457.099 235.21 457.631 235.785 458.05 236.488C458.469 237.191 458.679 238.054 458.679 239.077C458.679 240.256 458.37 241.321 457.752 242.273C457.141 243.224 456.246 243.981 455.067 244.542C453.896 245.103 452.472 245.384 450.795 245.384C449.233 245.384 447.88 245.131 446.737 244.627C445.6 244.123 444.705 243.42 444.052 242.518C443.406 241.616 443.04 240.568 442.955 239.375H445.682C445.753 240.199 446.03 240.881 446.513 241.42C447.003 241.953 447.621 242.351 448.366 242.614C449.119 242.869 449.929 242.997 450.795 242.997C451.804 242.997 452.71 242.834 453.512 242.507C454.315 242.173 454.95 241.712 455.419 241.122C455.888 240.526 456.122 239.83 456.122 239.034C456.122 238.31 455.92 237.72 455.515 237.266C455.11 236.811 454.577 236.442 453.917 236.158C453.256 235.874 452.543 235.625 451.776 235.412L449.091 234.645C447.386 234.155 446.037 233.455 445.043 232.546C444.048 231.637 443.551 230.447 443.551 228.977C443.551 227.756 443.881 226.69 444.542 225.781C445.21 224.865 446.104 224.155 447.227 223.651C448.356 223.139 449.616 222.884 451.009 222.884C452.415 222.884 453.665 223.136 454.759 223.64C455.852 224.137 456.719 224.819 457.358 225.685C458.004 226.552 458.345 227.536 458.381 228.636H455.824ZM469.543 245.341C467.966 245.341 466.606 244.993 465.463 244.297C464.326 243.594 463.449 242.614 462.831 241.357C462.22 240.092 461.915 238.622 461.915 236.946C461.915 235.27 462.22 233.793 462.831 232.514C463.449 231.229 464.308 230.227 465.409 229.51C466.517 228.786 467.81 228.423 469.287 228.423C470.139 228.423 470.981 228.565 471.812 228.849C472.643 229.134 473.399 229.595 474.081 230.234C474.763 230.866 475.306 231.705 475.711 232.749C476.116 233.793 476.318 235.078 476.318 236.605V237.67H463.705V235.497H473.762C473.762 234.574 473.577 233.75 473.208 233.026C472.845 232.301 472.327 231.729 471.652 231.31C470.985 230.891 470.196 230.682 469.287 230.682C468.286 230.682 467.419 230.93 466.688 231.428C465.963 231.918 465.406 232.557 465.015 233.345C464.624 234.134 464.429 234.979 464.429 235.881V237.33C464.429 238.565 464.642 239.613 465.068 240.472C465.502 241.325 466.102 241.974 466.869 242.422C467.636 242.862 468.527 243.082 469.543 243.082C470.203 243.082 470.8 242.99 471.333 242.805C471.872 242.614 472.338 242.33 472.728 241.953C473.119 241.57 473.421 241.094 473.634 240.526L476.063 241.207C475.807 242.031 475.377 242.756 474.774 243.381C474.17 243.999 473.424 244.482 472.536 244.83C471.649 245.17 470.651 245.341 469.543 245.341ZM482.657 223.182V245H480.143V223.182H482.657ZM494.123 245.341C492.546 245.341 491.186 244.993 490.043 244.297C488.906 243.594 488.029 242.614 487.411 241.357C486.8 240.092 486.495 238.622 486.495 236.946C486.495 235.27 486.8 233.793 487.411 232.514C488.029 231.229 488.888 230.227 489.989 229.51C491.097 228.786 492.39 228.423 493.867 228.423C494.719 228.423 495.561 228.565 496.392 228.849C497.223 229.134 497.979 229.595 498.661 230.234C499.343 230.866 499.886 231.705 500.291 232.749C500.696 233.793 500.898 235.078 500.898 236.605V237.67H488.285V235.497H498.342C498.342 234.574 498.157 233.75 497.788 233.026C497.425 232.301 496.907 231.729 496.232 231.31C495.565 230.891 494.776 230.682 493.867 230.682C492.866 230.682 491.999 230.93 491.268 231.428C490.543 231.918 489.986 232.557 489.595 233.345C489.205 234.134 489.009 234.979 489.009 235.881V237.33C489.009 238.565 489.222 239.613 489.648 240.472C490.082 241.325 490.682 241.974 491.449 242.422C492.216 242.862 493.107 243.082 494.123 243.082C494.783 243.082 495.38 242.99 495.913 242.805C496.452 242.614 496.918 242.33 497.308 241.953C497.699 241.57 498.001 241.094 498.214 240.526L500.643 241.207C500.387 242.031 499.957 242.756 499.354 243.381C498.75 243.999 498.004 244.482 497.116 244.83C496.229 245.17 495.231 245.341 494.123 245.341ZM511.371 245.341C509.837 245.341 508.516 244.979 507.408 244.254C506.3 243.53 505.447 242.532 504.851 241.261C504.254 239.989 503.956 238.537 503.956 236.903C503.956 235.241 504.261 233.775 504.872 232.504C505.49 231.225 506.349 230.227 507.45 229.51C508.558 228.786 509.851 228.423 511.328 228.423C512.479 228.423 513.516 228.636 514.439 229.062C515.362 229.489 516.119 230.085 516.708 230.852C517.298 231.619 517.663 232.514 517.805 233.537H515.291C515.099 232.791 514.673 232.131 514.013 231.555C513.359 230.973 512.479 230.682 511.371 230.682C510.391 230.682 509.531 230.937 508.793 231.449C508.061 231.953 507.489 232.667 507.077 233.59C506.673 234.506 506.47 235.582 506.47 236.818C506.47 238.082 506.669 239.183 507.067 240.121C507.472 241.058 508.04 241.786 508.771 242.305C509.51 242.823 510.376 243.082 511.371 243.082C512.024 243.082 512.617 242.969 513.15 242.741C513.683 242.514 514.134 242.188 514.503 241.761C514.872 241.335 515.135 240.824 515.291 240.227H517.805C517.663 241.193 517.312 242.063 516.751 242.837C516.197 243.604 515.462 244.215 514.545 244.67C513.636 245.117 512.578 245.341 511.371 245.341ZM528.597 228.636V230.767H520.117V228.636H528.597ZM522.589 224.716H525.103V240.312C525.103 241.023 525.206 241.555 525.412 241.911C525.625 242.259 525.895 242.493 526.222 242.614C526.555 242.727 526.907 242.784 527.276 242.784C527.553 242.784 527.781 242.77 527.958 242.741C528.136 242.706 528.278 242.678 528.384 242.656L528.896 244.915C528.725 244.979 528.487 245.043 528.182 245.107C527.876 245.178 527.489 245.213 527.021 245.213C526.31 245.213 525.614 245.06 524.933 244.755C524.258 244.45 523.697 243.984 523.249 243.359C522.809 242.734 522.589 241.946 522.589 240.994V224.716ZM553.089 228.636C552.962 227.557 552.443 226.719 551.534 226.122C550.625 225.526 549.51 225.227 548.189 225.227C547.223 225.227 546.378 225.384 545.653 225.696C544.936 226.009 544.375 226.438 543.97 226.985C543.572 227.532 543.374 228.153 543.374 228.849C543.374 229.432 543.512 229.933 543.789 230.352C544.073 230.763 544.435 231.108 544.876 231.385C545.316 231.655 545.778 231.879 546.261 232.056C546.744 232.227 547.188 232.365 547.592 232.472L549.808 233.068C550.376 233.217 551.009 233.423 551.705 233.686C552.408 233.949 553.079 234.308 553.718 234.762C554.364 235.21 554.897 235.785 555.316 236.488C555.735 237.191 555.945 238.054 555.945 239.077C555.945 240.256 555.636 241.321 555.018 242.273C554.407 243.224 553.512 243.981 552.333 244.542C551.161 245.103 549.737 245.384 548.061 245.384C546.499 245.384 545.146 245.131 544.002 244.627C542.866 244.123 541.971 243.42 541.317 242.518C540.671 241.616 540.305 240.568 540.22 239.375H542.947C543.018 240.199 543.295 240.881 543.778 241.42C544.268 241.953 544.886 242.351 545.632 242.614C546.385 242.869 547.195 242.997 548.061 242.997C549.07 242.997 549.975 242.834 550.778 242.507C551.58 242.173 552.216 241.712 552.685 241.122C553.153 240.526 553.388 239.83 553.388 239.034C553.388 238.31 553.185 237.72 552.781 237.266C552.376 236.811 551.843 236.442 551.183 236.158C550.522 235.874 549.808 235.625 549.041 235.412L546.357 234.645C544.652 234.155 543.303 233.455 542.308 232.546C541.314 231.637 540.817 230.447 540.817 228.977C540.817 227.756 541.147 226.69 541.808 225.781C542.475 224.865 543.37 224.155 544.492 223.651C545.621 223.139 546.882 222.884 548.274 222.884C549.68 222.884 550.93 223.136 552.024 223.64C553.118 224.137 553.984 224.819 554.624 225.685C555.27 226.552 555.611 227.536 555.646 228.636H553.089ZM566.808 245.341C565.232 245.341 563.872 244.993 562.728 244.297C561.592 243.594 560.715 242.614 560.097 241.357C559.486 240.092 559.181 238.622 559.181 236.946C559.181 235.27 559.486 233.793 560.097 232.514C560.715 231.229 561.574 230.227 562.675 229.51C563.783 228.786 565.075 228.423 566.553 228.423C567.405 228.423 568.247 228.565 569.078 228.849C569.909 229.134 570.665 229.595 571.347 230.234C572.029 230.866 572.572 231.705 572.977 232.749C573.382 233.793 573.584 235.078 573.584 236.605V237.67H560.97V235.497H571.027C571.027 234.574 570.843 233.75 570.473 233.026C570.111 232.301 569.593 231.729 568.918 231.31C568.25 230.891 567.462 230.682 566.553 230.682C565.551 230.682 564.685 230.93 563.953 231.428C563.229 231.918 562.671 232.557 562.281 233.345C561.89 234.134 561.695 234.979 561.695 235.881V237.33C561.695 238.565 561.908 239.613 562.334 240.472C562.767 241.325 563.367 241.974 564.134 242.422C564.901 242.862 565.793 243.082 566.808 243.082C567.469 243.082 568.066 242.99 568.598 242.805C569.138 242.614 569.603 242.33 569.994 241.953C570.384 241.57 570.686 241.094 570.899 240.526L573.328 241.207C573.073 242.031 572.643 242.756 572.039 243.381C571.436 243.999 570.69 244.482 569.802 244.83C568.914 245.17 567.916 245.341 566.808 245.341ZM577.409 245V228.636H579.838V231.108H580.008C580.306 230.298 580.846 229.641 581.627 229.137C582.409 228.633 583.289 228.381 584.269 228.381C584.454 228.381 584.685 228.384 584.962 228.391C585.239 228.398 585.448 228.409 585.59 228.423V230.98C585.505 230.959 585.31 230.927 585.004 230.884C584.706 230.835 584.39 230.81 584.056 230.81C583.261 230.81 582.551 230.977 581.926 231.31C581.308 231.637 580.818 232.092 580.455 232.674C580.1 233.249 579.923 233.906 579.923 234.645V245H577.409ZM602.449 228.636L596.398 245H593.841L587.79 228.636H590.518L595.035 241.676H595.205L599.722 228.636H602.449ZM605.768 245V228.636H608.282V245H605.768ZM607.046 225.909C606.556 225.909 606.134 225.742 605.779 225.408C605.431 225.075 605.257 224.673 605.257 224.205C605.257 223.736 605.431 223.335 605.779 223.001C606.134 222.667 606.556 222.5 607.046 222.5C607.536 222.5 607.955 222.667 608.303 223.001C608.659 223.335 608.836 223.736 608.836 224.205C608.836 224.673 608.659 225.075 608.303 225.408C607.955 225.742 607.536 225.909 607.046 225.909ZM619.535 245.341C618.001 245.341 616.68 244.979 615.572 244.254C614.464 243.53 613.612 242.532 613.015 241.261C612.418 239.989 612.12 238.537 612.12 236.903C612.12 235.241 612.425 233.775 613.036 232.504C613.654 231.225 614.513 230.227 615.614 229.51C616.722 228.786 618.015 228.423 619.492 228.423C620.643 228.423 621.68 228.636 622.603 229.062C623.526 229.489 624.283 230.085 624.872 230.852C625.462 231.619 625.827 232.514 625.969 233.537H623.455C623.263 232.791 622.837 232.131 622.177 231.555C621.523 230.973 620.643 230.682 619.535 230.682C618.555 230.682 617.695 230.937 616.957 231.449C616.225 231.953 615.653 232.667 615.241 233.59C614.837 234.506 614.634 235.582 614.634 236.818C614.634 238.082 614.833 239.183 615.231 240.121C615.636 241.058 616.204 241.786 616.935 242.305C617.674 242.823 618.54 243.082 619.535 243.082C620.188 243.082 620.781 242.969 621.314 242.741C621.847 242.514 622.298 242.188 622.667 241.761C623.036 241.335 623.299 240.824 623.455 240.227H625.969C625.827 241.193 625.476 242.063 624.915 242.837C624.361 243.604 623.626 244.215 622.71 244.67C621.8 245.117 620.742 245.341 619.535 245.341ZM636.506 245.341C634.929 245.341 633.569 244.993 632.425 244.297C631.289 243.594 630.412 242.614 629.794 241.357C629.183 240.092 628.878 238.622 628.878 236.946C628.878 235.27 629.183 233.793 629.794 232.514C630.412 231.229 631.271 230.227 632.372 229.51C633.48 228.786 634.773 228.423 636.25 228.423C637.102 228.423 637.944 228.565 638.775 228.849C639.606 229.134 640.362 229.595 641.044 230.234C641.726 230.866 642.269 231.705 642.674 232.749C643.079 233.793 643.281 235.078 643.281 236.605V237.67H630.668V235.497H640.724C640.724 234.574 640.54 233.75 640.17 233.026C639.808 232.301 639.29 231.729 638.615 231.31C637.947 230.891 637.159 230.682 636.25 230.682C635.249 230.682 634.382 230.93 633.651 231.428C632.926 231.918 632.369 232.557 631.978 233.345C631.587 234.134 631.392 234.979 631.392 235.881V237.33C631.392 238.565 631.605 239.613 632.031 240.472C632.464 241.325 633.065 241.974 633.832 242.422C634.599 242.862 635.49 243.082 636.506 243.082C637.166 243.082 637.763 242.99 638.295 242.805C638.835 242.614 639.3 242.33 639.691 241.953C640.082 241.57 640.384 241.094 640.597 240.526L643.026 241.207C642.77 242.031 642.34 242.756 641.737 243.381C641.133 243.999 640.387 244.482 639.499 244.83C638.612 245.17 637.614 245.341 636.506 245.341Z" fill="#353535"/>
<g filter="url(#filter2_d_3_390)">
<path d="M965.774 201.001C1015.76 201.001 1056.27 159.363 1056.27 108.001C1056.27 56.6385 1015.76 15.001 965.774 15.001C915.792 15.001 875.274 56.6385 875.274 108.001C875.274 159.363 915.792 201.001 965.774 201.001Z" fill="white"/>
<path d="M965.774 200.501C1015.48 200.501 1055.77 159.087 1055.77 108.001C1055.77 56.9146 1015.48 15.501 965.774 15.501C916.069 15.501 875.774 56.9146 875.774 108.001C875.774 159.087 916.069 200.501 965.774 200.501Z" stroke="#61C8F1"/>
</g>
<path d="M987.778 140H942.778C939.21 140.008 935.786 138.6 933.255 136.085C930.724 133.57 929.294 130.155 929.278 126.587V81.8871C929.293 78.3188 930.722 74.902 933.253 72.3866C935.784 69.8712 939.21 68.4627 942.778 68.4701H947.278V66.2351C947.296 65.65 947.54 65.0947 947.96 64.687C948.38 64.2792 948.943 64.0512 949.528 64.0512C950.114 64.0512 950.676 64.2792 951.096 64.687C951.516 65.0947 951.761 65.65 951.778 66.2351V68.4701H978.778V66.2351C978.778 65.6384 979.015 65.0661 979.437 64.6441C979.859 64.2222 980.431 63.9851 981.028 63.9851C981.625 63.9851 982.197 64.2222 982.619 64.6441C983.041 65.0661 983.278 65.6384 983.278 66.2351V68.4701H987.778C991.346 68.4627 994.77 69.8705 997.301 72.3848C999.832 74.8992 1001.26 78.3147 1001.28 81.8821V126.582C1001.26 130.151 999.834 133.568 997.303 136.083C994.772 138.599 991.347 140.008 987.778 140ZM965.278 81.8821C960.864 81.9111 956.556 83.2468 952.9 85.7205C949.243 88.1943 946.401 91.6954 944.732 95.7824C943.062 99.8693 942.641 104.359 943.52 108.685C944.399 113.012 946.539 116.981 949.671 120.092C952.803 123.204 956.786 125.318 961.118 126.169C965.45 127.019 969.937 126.568 974.013 124.872C978.089 123.176 981.571 120.311 984.021 116.638C986.471 112.966 987.778 108.65 987.778 104.235C987.752 98.2893 985.368 92.5967 981.15 88.4061C976.932 84.2156 971.224 81.8693 965.278 81.8821ZM974.278 106.47H965.278C964.683 106.472 964.112 106.238 963.689 105.819C963.266 105.4 963.027 104.83 963.024 104.235V93.0581C963.024 92.4614 963.261 91.8891 963.683 91.4671C964.105 91.0452 964.677 90.8081 965.274 90.8081C965.871 90.8081 966.443 91.0452 966.865 91.4671C967.287 91.8891 967.524 92.4614 967.524 93.0581V102H974.278C974.871 102 975.439 102.236 975.859 102.655C976.278 103.074 976.513 103.642 976.513 104.235C976.513 104.828 976.278 105.396 975.859 105.815C975.439 106.235 974.871 106.47 974.278 106.47Z" fill="#FF4A40"/>
<path d="M868.92 228.636C868.792 227.557 868.274 226.719 867.365 226.122C866.456 225.526 865.341 225.227 864.019 225.227C863.054 225.227 862.208 225.384 861.484 225.696C860.767 226.009 860.206 226.438 859.801 226.985C859.403 227.532 859.204 228.153 859.204 228.849C859.204 229.432 859.343 229.933 859.62 230.352C859.904 230.763 860.266 231.108 860.706 231.385C861.147 231.655 861.608 231.879 862.091 232.056C862.574 232.227 863.018 232.365 863.423 232.472L865.639 233.068C866.207 233.217 866.839 233.423 867.535 233.686C868.238 233.949 868.909 234.308 869.549 234.762C870.195 235.21 870.728 235.785 871.147 236.488C871.566 237.191 871.775 238.054 871.775 239.077C871.775 240.256 871.466 241.321 870.848 242.273C870.238 243.224 869.343 243.981 868.164 244.542C866.992 245.103 865.568 245.384 863.892 245.384C862.329 245.384 860.976 245.131 859.833 244.627C858.696 244.123 857.801 243.42 857.148 242.518C856.502 241.616 856.136 240.568 856.051 239.375H858.778C858.849 240.199 859.126 240.881 859.609 241.42C860.099 241.953 860.717 242.351 861.463 242.614C862.216 242.869 863.025 242.997 863.892 242.997C864.9 242.997 865.806 242.834 866.608 242.507C867.411 242.173 868.046 241.712 868.515 241.122C868.984 240.526 869.218 239.83 869.218 239.034C869.218 238.31 869.016 237.72 868.611 237.266C868.206 236.811 867.674 236.442 867.013 236.158C866.353 235.874 865.639 235.625 864.872 235.412L862.187 234.645C860.483 234.155 859.133 233.455 858.139 232.546C857.144 231.637 856.647 230.447 856.647 228.977C856.647 227.756 856.978 226.69 857.638 225.781C858.306 224.865 859.201 224.155 860.323 223.651C861.452 223.139 862.713 222.884 864.105 222.884C865.511 222.884 866.761 223.136 867.855 223.64C868.948 224.137 869.815 224.819 870.454 225.685C871.1 226.552 871.441 227.536 871.477 228.636H868.92ZM882.639 245.341C881.062 245.341 879.702 244.993 878.559 244.297C877.422 243.594 876.545 242.614 875.927 241.357C875.317 240.092 875.011 238.622 875.011 236.946C875.011 235.27 875.317 233.793 875.927 232.514C876.545 231.229 877.405 230.227 878.505 229.51C879.613 228.786 880.906 228.423 882.383 228.423C883.236 228.423 884.077 228.565 884.908 228.849C885.739 229.134 886.496 229.595 887.177 230.234C887.859 230.866 888.402 231.705 888.807 232.749C889.212 233.793 889.415 235.078 889.415 236.605V237.67H876.801V235.497H886.858C886.858 234.574 886.673 233.75 886.304 233.026C885.942 232.301 885.423 231.729 884.748 231.31C884.081 230.891 883.292 230.682 882.383 230.682C881.382 230.682 880.515 230.93 879.784 231.428C879.059 231.918 878.502 232.557 878.111 233.345C877.721 234.134 877.525 234.979 877.525 235.881V237.33C877.525 238.565 877.738 239.613 878.165 240.472C878.598 241.325 879.198 241.974 879.965 242.422C880.732 242.862 881.623 243.082 882.639 243.082C883.299 243.082 883.896 242.99 884.429 242.805C884.969 242.614 885.434 242.33 885.824 241.953C886.215 241.57 886.517 241.094 886.73 240.526L889.159 241.207C888.903 242.031 888.473 242.756 887.87 243.381C887.266 243.999 886.52 244.482 885.633 244.83C884.745 245.17 883.747 245.341 882.639 245.341ZM895.753 223.182V245H893.239V223.182H895.753ZM907.219 245.341C905.642 245.341 904.282 244.993 903.139 244.297C902.002 243.594 901.125 242.614 900.507 241.357C899.897 240.092 899.591 238.622 899.591 236.946C899.591 235.27 899.897 233.793 900.507 232.514C901.125 231.229 901.985 230.227 903.086 229.51C904.193 228.786 905.486 228.423 906.963 228.423C907.816 228.423 908.657 228.565 909.488 228.849C910.319 229.134 911.076 229.595 911.757 230.234C912.439 230.866 912.983 231.705 913.387 232.749C913.792 233.793 913.995 235.078 913.995 236.605V237.67H901.381V235.497H911.438C911.438 234.574 911.253 233.75 910.884 233.026C910.522 232.301 910.003 231.729 909.328 231.31C908.661 230.891 907.872 230.682 906.963 230.682C905.962 230.682 905.095 230.93 904.364 231.428C903.64 231.918 903.082 232.557 902.691 233.345C902.301 234.134 902.105 234.979 902.105 235.881V237.33C902.105 238.565 902.318 239.613 902.745 240.472C903.178 241.325 903.778 241.974 904.545 242.422C905.312 242.862 906.203 243.082 907.219 243.082C907.88 243.082 908.476 242.99 909.009 242.805C909.549 242.614 910.014 242.33 910.404 241.953C910.795 241.57 911.097 241.094 911.31 240.526L913.739 241.207C913.483 242.031 913.054 242.756 912.45 243.381C911.846 243.999 911.1 244.482 910.213 244.83C909.325 245.17 908.327 245.341 907.219 245.341ZM924.467 245.341C922.933 245.341 921.612 244.979 920.504 244.254C919.396 243.53 918.544 242.532 917.947 241.261C917.35 239.989 917.052 238.537 917.052 236.903C917.052 235.241 917.358 233.775 917.968 232.504C918.586 231.225 919.446 230.227 920.546 229.51C921.654 228.786 922.947 228.423 924.424 228.423C925.575 228.423 926.612 228.636 927.535 229.062C928.458 229.489 929.215 230.085 929.804 230.852C930.394 231.619 930.76 232.514 930.902 233.537H928.387C928.196 232.791 927.769 232.131 927.109 231.555C926.456 230.973 925.575 230.682 924.467 230.682C923.487 230.682 922.627 230.937 921.889 231.449C921.157 231.953 920.586 232.667 920.174 233.59C919.769 234.506 919.566 235.582 919.566 236.818C919.566 238.082 919.765 239.183 920.163 240.121C920.568 241.058 921.136 241.786 921.867 242.305C922.606 242.823 923.473 243.082 924.467 243.082C925.12 243.082 925.713 242.969 926.246 242.741C926.779 242.514 927.23 242.188 927.599 241.761C927.968 241.335 928.231 240.824 928.387 240.227H930.902C930.76 241.193 930.408 242.063 929.847 242.837C929.293 243.604 928.558 244.215 927.642 244.67C926.733 245.117 925.674 245.341 924.467 245.341ZM941.693 228.636V230.767H933.213V228.636H941.693ZM935.685 224.716H938.199V240.312C938.199 241.023 938.302 241.555 938.508 241.911C938.721 242.259 938.991 242.493 939.318 242.614C939.652 242.727 940.003 242.784 940.372 242.784C940.649 242.784 940.877 242.77 941.054 242.741C941.232 242.706 941.374 242.678 941.48 242.656L941.992 244.915C941.821 244.979 941.583 245.043 941.278 245.107C940.973 245.178 940.586 245.213 940.117 245.213C939.407 245.213 938.711 245.06 938.029 244.755C937.354 244.45 936.793 243.984 936.345 243.359C935.905 242.734 935.685 241.946 935.685 240.994V224.716ZM955.149 245H952.379L960.39 223.182H963.117L971.129 245H968.359L961.839 226.634H961.669L955.149 245ZM956.171 236.477H967.336V238.821H956.171V236.477ZM985.516 228.636L979.465 245H976.908L970.857 228.636H973.584L978.102 241.676H978.272L982.789 228.636H985.516ZM993.152 245.384C992.115 245.384 991.174 245.188 990.329 244.798C989.484 244.4 988.813 243.828 988.315 243.082C987.818 242.33 987.57 241.42 987.57 240.355C987.57 239.418 987.754 238.658 988.124 238.075C988.493 237.486 988.987 237.024 989.605 236.69C990.222 236.357 990.904 236.108 991.65 235.945C992.403 235.774 993.159 235.639 993.919 235.54C994.913 235.412 995.72 235.316 996.337 235.252C996.962 235.181 997.417 235.064 997.701 234.901C997.992 234.737 998.138 234.453 998.138 234.048V233.963C998.138 232.912 997.85 232.095 997.275 231.513C996.707 230.93 995.844 230.639 994.686 230.639C993.486 230.639 992.545 230.902 991.863 231.428C991.181 231.953 990.702 232.514 990.425 233.111L988.038 232.259C988.465 231.264 989.033 230.49 989.743 229.936C990.46 229.375 991.242 228.984 992.087 228.764C992.939 228.537 993.777 228.423 994.601 228.423C995.127 228.423 995.73 228.487 996.412 228.615C997.101 228.736 997.765 228.988 998.404 229.371C999.051 229.755 999.587 230.334 1000.01 231.108C1000.44 231.882 1000.65 232.919 1000.65 234.219V245H998.138V242.784H998.01C997.84 243.139 997.556 243.519 997.158 243.924C996.76 244.329 996.231 244.673 995.57 244.957C994.91 245.241 994.104 245.384 993.152 245.384ZM993.536 243.125C994.53 243.125 995.368 242.93 996.05 242.539C996.739 242.148 997.257 241.644 997.605 241.026C997.96 240.408 998.138 239.759 998.138 239.077V236.776C998.031 236.903 997.797 237.021 997.435 237.127C997.08 237.227 996.668 237.315 996.199 237.393C995.737 237.464 995.286 237.528 994.846 237.585C994.413 237.635 994.061 237.678 993.791 237.713C993.138 237.798 992.527 237.937 991.959 238.129C991.398 238.313 990.943 238.594 990.595 238.97C990.254 239.339 990.084 239.844 990.084 240.483C990.084 241.357 990.407 242.017 991.053 242.464C991.707 242.905 992.534 243.125 993.536 243.125ZM1005.24 245V228.636H1007.76V245H1005.24ZM1006.52 225.909C1006.03 225.909 1005.61 225.742 1005.25 225.408C1004.9 225.075 1004.73 224.673 1004.73 224.205C1004.73 223.736 1004.9 223.335 1005.25 223.001C1005.61 222.667 1006.03 222.5 1006.52 222.5C1007.01 222.5 1007.43 222.667 1007.78 223.001C1008.13 223.335 1008.31 223.736 1008.31 224.205C1008.31 224.673 1008.13 225.075 1007.78 225.408C1007.43 225.742 1007.01 225.909 1006.52 225.909ZM1017.18 245.384C1016.14 245.384 1015.2 245.188 1014.35 244.798C1013.51 244.4 1012.84 243.828 1012.34 243.082C1011.84 242.33 1011.59 241.42 1011.59 240.355C1011.59 239.418 1011.78 238.658 1012.15 238.075C1012.52 237.486 1013.01 237.024 1013.63 236.69C1014.25 236.357 1014.93 236.108 1015.67 235.945C1016.43 235.774 1017.18 235.639 1017.94 235.54C1018.94 235.412 1019.74 235.316 1020.36 235.252C1020.99 235.181 1021.44 235.064 1021.72 234.901C1022.02 234.737 1022.16 234.453 1022.16 234.048V233.963C1022.16 232.912 1021.87 232.095 1021.3 231.513C1020.73 230.93 1019.87 230.639 1018.71 230.639C1017.51 230.639 1016.57 230.902 1015.89 231.428C1015.2 231.953 1014.73 232.514 1014.45 233.111L1012.06 232.259C1012.49 231.264 1013.06 230.49 1013.77 229.936C1014.48 229.375 1015.27 228.984 1016.11 228.764C1016.96 228.537 1017.8 228.423 1018.62 228.423C1019.15 228.423 1019.75 228.487 1020.44 228.615C1021.12 228.736 1021.79 228.988 1022.43 229.371C1023.07 229.755 1023.61 230.334 1024.04 231.108C1024.46 231.882 1024.68 232.919 1024.68 234.219V245H1022.16V242.784H1022.03C1021.86 243.139 1021.58 243.519 1021.18 243.924C1020.78 244.329 1020.25 244.673 1019.59 244.957C1018.93 245.241 1018.13 245.384 1017.18 245.384ZM1017.56 243.125C1018.55 243.125 1019.39 242.93 1020.07 242.539C1020.76 242.148 1021.28 241.644 1021.63 241.026C1021.98 240.408 1022.16 239.759 1022.16 239.077V236.776C1022.05 236.903 1021.82 237.021 1021.46 237.127C1021.1 237.227 1020.69 237.315 1020.22 237.393C1019.76 237.464 1019.31 237.528 1018.87 237.585C1018.44 237.635 1018.08 237.678 1017.81 237.713C1017.16 237.798 1016.55 237.937 1015.98 238.129C1015.42 238.313 1014.97 238.594 1014.62 238.97C1014.28 239.339 1014.11 239.844 1014.11 240.483C1014.11 241.357 1014.43 242.017 1015.08 242.464C1015.73 242.905 1016.56 243.125 1017.56 243.125ZM1029.61 245V223.182H1032.12V231.236H1032.33C1032.52 230.952 1032.77 230.589 1033.1 230.149C1033.43 229.702 1033.91 229.304 1034.53 228.956C1035.15 228.601 1036 228.423 1037.06 228.423C1038.44 228.423 1039.66 228.768 1040.71 229.457C1041.76 230.146 1042.58 231.122 1043.17 232.386C1043.76 233.651 1044.05 235.142 1044.05 236.861C1044.05 238.594 1043.76 240.096 1043.17 241.367C1042.58 242.631 1041.76 243.612 1040.72 244.308C1039.67 244.996 1038.47 245.341 1037.11 245.341C1036.05 245.341 1035.21 245.167 1034.58 244.819C1033.95 244.464 1033.46 244.062 1033.12 243.615C1032.78 243.161 1032.52 242.784 1032.33 242.486H1032.03V245H1029.61ZM1032.08 236.818C1032.08 238.054 1032.26 239.144 1032.62 240.089C1032.98 241.026 1033.51 241.761 1034.21 242.294C1034.9 242.82 1035.76 243.082 1036.76 243.082C1037.82 243.082 1038.69 242.805 1039.4 242.251C1040.11 241.69 1040.64 240.937 1040.99 239.993C1041.36 239.041 1041.54 237.983 1041.54 236.818C1041.54 235.668 1041.36 234.631 1041 233.707C1040.66 232.777 1040.13 232.042 1039.42 231.502C1038.71 230.955 1037.83 230.682 1036.76 230.682C1035.74 230.682 1034.88 230.941 1034.19 231.46C1033.49 231.971 1032.96 232.688 1032.61 233.612C1032.25 234.528 1032.08 235.597 1032.08 236.818ZM1047.9 245V228.636H1050.41V245H1047.9ZM1049.18 225.909C1048.69 225.909 1048.26 225.742 1047.91 225.408C1047.56 225.075 1047.39 224.673 1047.39 224.205C1047.39 223.736 1047.56 223.335 1047.91 223.001C1048.26 222.667 1048.69 222.5 1049.18 222.5C1049.67 222.5 1050.08 222.667 1050.43 223.001C1050.79 223.335 1050.97 223.736 1050.97 224.205C1050.97 224.673 1050.79 225.075 1050.43 225.408C1050.08 225.742 1049.67 225.909 1049.18 225.909ZM1057.53 223.182V245H1055.02V223.182H1057.53ZM1062.14 245V228.636H1064.65V245H1062.14ZM1063.41 225.909C1062.92 225.909 1062.5 225.742 1062.15 225.408C1061.8 225.075 1061.62 224.673 1061.62 224.205C1061.62 223.736 1061.8 223.335 1062.15 223.001C1062.5 222.667 1062.92 222.5 1063.41 222.5C1063.9 222.5 1064.32 222.667 1064.67 223.001C1065.03 223.335 1065.2 223.736 1065.2 224.205C1065.2 224.673 1065.03 225.075 1064.67 225.408C1064.32 225.742 1063.9 225.909 1063.41 225.909ZM1076.37 228.636V230.767H1067.89V228.636H1076.37ZM1070.36 224.716H1072.88V240.312C1072.88 241.023 1072.98 241.555 1073.19 241.911C1073.4 242.259 1073.67 242.493 1074 242.614C1074.33 242.727 1074.68 242.784 1075.05 242.784C1075.33 242.784 1075.55 242.77 1075.73 242.741C1075.91 242.706 1076.05 242.678 1076.16 242.656L1076.67 244.915C1076.5 244.979 1076.26 245.043 1075.96 245.107C1075.65 245.178 1075.26 245.213 1074.79 245.213C1074.08 245.213 1073.39 245.06 1072.71 244.755C1072.03 244.45 1071.47 243.984 1071.02 243.359C1070.58 242.734 1070.36 241.946 1070.36 240.994V224.716ZM1081.77 251.136C1081.35 251.136 1080.97 251.101 1080.63 251.03C1080.3 250.966 1080.07 250.902 1079.94 250.838L1080.58 248.622C1081.19 248.778 1081.73 248.835 1082.2 248.793C1082.67 248.75 1083.08 248.54 1083.45 248.164C1083.81 247.795 1084.15 247.195 1084.46 246.364L1084.93 245.085L1078.87 228.636H1081.6L1086.12 241.676H1086.29L1090.81 228.636H1093.53L1086.59 247.386C1086.28 248.232 1085.89 248.931 1085.43 249.485C1084.96 250.046 1084.43 250.462 1083.82 250.732C1083.21 251.001 1082.53 251.136 1081.77 251.136Z" fill="#353535"/>
<g filter="url(#filter3_d_3_390)">
<path d="M1406.5 215C1456.48 215 1497 173.362 1497 122C1497 70.6375 1456.48 29 1406.5 29C1356.52 29 1316 70.6375 1316 122C1316 173.362 1356.52 215 1406.5 215Z" fill="white"/>
<path d="M1406.5 214.5C1456.21 214.5 1496.5 173.086 1496.5 122C1496.5 70.9137 1456.21 29.5 1406.5 29.5C1356.79 29.5 1316.5 70.9137 1316.5 122C1316.5 173.086 1356.79 214.5 1406.5 214.5Z" stroke="#61C8F1"/>
</g>
<path d="M1453.46 149.999C1453.26 149.998 1453.05 149.958 1452.86 149.88L1430.22 140.82L1409.11 149.869C1408.92 149.952 1408.71 149.995 1408.5 149.995C1408.29 149.995 1408.09 149.952 1407.9 149.869L1386.79 140.82L1364.14 149.88C1363.95 149.956 1363.75 149.996 1363.55 149.997C1363.28 149.994 1363.01 149.919 1362.78 149.782C1362.54 149.644 1362.35 149.448 1362.21 149.212C1362.08 148.979 1362 148.714 1362 148.443C1362 148.172 1362.08 147.907 1362.21 147.674L1383.69 110.464C1383.86 110.172 1384.12 109.944 1384.43 109.815L1388.04 108.298C1389.37 110.38 1390.81 112.508 1392.34 114.627C1396.27 120.043 1400.57 125.188 1405.19 130.027C1406.07 130.9 1407.26 131.39 1408.5 131.39C1409.74 131.39 1410.93 130.9 1411.81 130.027C1416.44 125.188 1420.73 120.041 1424.67 114.621C1426.3 112.355 1427.81 110.135 1429.14 108.021L1433.84 109.781C1434.19 109.914 1434.48 110.17 1434.66 110.502L1454.81 147.702C1454.94 147.935 1455.01 148.199 1455 148.467C1455 148.734 1454.92 148.996 1454.78 149.224C1454.65 149.456 1454.45 149.65 1454.22 149.786C1453.99 149.921 1453.73 149.995 1453.46 149.999ZM1408.5 128.319C1408.3 128.319 1408.09 128.279 1407.91 128.199C1407.72 128.12 1407.55 128.004 1407.4 127.857C1402.89 123.128 1398.7 118.101 1394.86 112.811C1386.32 100.999 1382.17 91.3551 1382.17 83.3291C1382.17 76.3441 1384.95 69.6452 1389.89 64.7061C1394.83 59.7669 1401.53 56.9919 1408.51 56.9919C1415.5 56.9919 1422.2 59.7669 1427.14 64.7061C1432.07 69.6452 1434.85 76.3441 1434.85 83.3291C1434.85 91.3511 1430.7 100.995 1422.16 112.811C1418.32 118.102 1414.12 123.128 1409.61 127.857C1409.46 128.004 1409.29 128.121 1409.1 128.2C1408.91 128.279 1408.71 128.32 1408.5 128.319H1408.5ZM1408.51 66.3191C1405.14 66.3191 1401.84 67.3188 1399.04 69.1921C1396.23 71.0654 1394.05 73.7281 1392.76 76.8433C1391.47 79.9584 1391.13 83.3863 1391.79 86.6934C1392.45 90.0004 1394.07 93.038 1396.45 95.4221C1398.84 97.8063 1401.88 99.43 1405.18 100.088C1408.49 100.745 1411.92 100.407 1415.03 99.1169C1418.15 97.8265 1420.81 95.6413 1422.68 92.8376C1424.56 90.034 1425.56 86.7378 1425.56 83.366C1425.55 78.8449 1423.75 74.5103 1420.56 71.3135C1417.36 68.1167 1413.03 66.3189 1408.5 66.3149L1408.51 66.3191ZM1408.51 97.3191C1405.29 97.3134 1402.17 96.1918 1399.68 94.1455C1397.2 92.0992 1395.5 89.2545 1394.88 86.0959C1394.25 82.9374 1394.74 79.6603 1396.26 76.8225C1397.78 73.9847 1400.24 71.7618 1403.22 70.5322C1406.19 69.3027 1409.5 69.1426 1412.58 70.0791C1415.66 71.0156 1418.32 72.9908 1420.11 75.6685C1421.9 78.3462 1422.7 81.5609 1422.39 84.7649C1422.07 87.9689 1420.65 90.9642 1418.38 93.241C1417.08 94.5385 1415.54 95.5663 1413.85 96.2649C1412.15 96.9635 1410.34 97.3191 1408.5 97.311L1408.51 97.3191ZM1400.76 82.6389V89.572C1400.77 89.9803 1400.93 90.371 1401.22 90.6597C1401.51 90.9484 1401.9 91.1119 1402.31 91.115H1414.71C1415.11 91.1132 1415.51 90.9501 1415.8 90.6611C1416.08 90.3722 1416.25 89.9808 1416.25 89.572V82.6389L1416.95 83.104C1417.22 83.3331 1417.57 83.4621 1417.93 83.47C1418.28 83.4532 1418.62 83.3221 1418.89 83.0964C1419.16 82.8708 1419.35 82.5627 1419.43 82.219C1419.52 81.8926 1419.49 81.5451 1419.35 81.2368C1419.21 80.9286 1418.97 80.6792 1418.67 80.532L1409.37 74.332C1409.11 74.1635 1408.81 74.0737 1408.51 74.074H1408.48C1408.19 74.0779 1407.9 74.1675 1407.65 74.332L1398.35 80.532C1398.05 80.6815 1397.81 80.9321 1397.67 81.2402C1397.53 81.5484 1397.51 81.8948 1397.6 82.22C1397.68 82.5612 1397.87 82.8667 1398.14 83.0906C1398.41 83.3145 1398.75 83.4447 1399.1 83.4619C1399.45 83.4549 1399.79 83.3289 1400.06 83.104L1400.76 82.6431L1400.76 82.6389ZM1413.15 88.0151H1403.86V80.5701L1408.51 77.4761L1413.15 80.5759V88.0161V88.0151Z" fill="#4CD964"/>
<path d="M1301.2 228.636C1301.08 227.557 1300.56 226.719 1299.65 226.122C1298.74 225.526 1297.62 225.227 1296.3 225.227C1295.34 225.227 1294.49 225.384 1293.77 225.696C1293.05 226.009 1292.49 226.438 1292.08 226.985C1291.69 227.532 1291.49 228.153 1291.49 228.849C1291.49 229.432 1291.63 229.933 1291.9 230.352C1292.19 230.763 1292.55 231.108 1292.99 231.385C1293.43 231.655 1293.89 231.879 1294.37 232.056C1294.86 232.227 1295.3 232.365 1295.71 232.472L1297.92 233.068C1298.49 233.217 1299.12 233.423 1299.82 233.686C1300.52 233.949 1301.19 234.308 1301.83 234.762C1302.48 235.21 1303.01 235.785 1303.43 236.488C1303.85 237.191 1304.06 238.054 1304.06 239.077C1304.06 240.256 1303.75 241.321 1303.13 242.273C1302.52 243.224 1301.63 243.981 1300.45 244.542C1299.28 245.103 1297.85 245.384 1296.18 245.384C1294.61 245.384 1293.26 245.131 1292.12 244.627C1290.98 244.123 1290.09 243.42 1289.43 242.518C1288.79 241.616 1288.42 240.568 1288.33 239.375H1291.06C1291.13 240.199 1291.41 240.881 1291.89 241.42C1292.38 241.953 1293 242.351 1293.75 242.614C1294.5 242.869 1295.31 242.997 1296.18 242.997C1297.18 242.997 1298.09 242.834 1298.89 242.507C1299.69 242.173 1300.33 241.712 1300.8 241.122C1301.27 240.526 1301.5 239.83 1301.5 239.034C1301.5 238.31 1301.3 237.72 1300.89 237.266C1300.49 236.811 1299.96 236.442 1299.3 236.158C1298.64 235.874 1297.92 235.625 1297.16 235.412L1294.47 234.645C1292.77 234.155 1291.42 233.455 1290.42 232.546C1289.43 231.637 1288.93 230.447 1288.93 228.977C1288.93 227.756 1289.26 226.69 1289.92 225.781C1290.59 224.865 1291.48 224.155 1292.61 223.651C1293.74 223.139 1295 222.884 1296.39 222.884C1297.79 222.884 1299.04 223.136 1300.14 223.64C1301.23 224.137 1302.1 224.819 1302.74 225.685C1303.38 226.552 1303.73 227.536 1303.76 228.636H1301.2ZM1314.92 245.341C1313.35 245.341 1311.99 244.993 1310.84 244.297C1309.71 243.594 1308.83 242.614 1308.21 241.357C1307.6 240.092 1307.29 238.622 1307.29 236.946C1307.29 235.27 1307.6 233.793 1308.21 232.514C1308.83 231.229 1309.69 230.227 1310.79 229.51C1311.9 228.786 1313.19 228.423 1314.67 228.423C1315.52 228.423 1316.36 228.565 1317.19 228.849C1318.02 229.134 1318.78 229.595 1319.46 230.234C1320.14 230.866 1320.69 231.705 1321.09 232.749C1321.5 233.793 1321.7 235.078 1321.7 236.605V237.67H1309.08V235.497H1319.14C1319.14 234.574 1318.96 233.75 1318.59 233.026C1318.23 232.301 1317.71 231.729 1317.03 231.31C1316.36 230.891 1315.58 230.682 1314.67 230.682C1313.67 230.682 1312.8 230.93 1312.07 231.428C1311.34 231.918 1310.79 232.557 1310.39 233.345C1310 234.134 1309.81 234.979 1309.81 235.881V237.33C1309.81 238.565 1310.02 239.613 1310.45 240.472C1310.88 241.325 1311.48 241.974 1312.25 242.422C1313.02 242.862 1313.91 243.082 1314.92 243.082C1315.58 243.082 1316.18 242.99 1316.71 242.805C1317.25 242.614 1317.72 242.33 1318.11 241.953C1318.5 241.57 1318.8 241.094 1319.01 240.526L1321.44 241.207C1321.19 242.031 1320.76 242.756 1320.15 243.381C1319.55 243.999 1318.8 244.482 1317.92 244.83C1317.03 245.17 1316.03 245.341 1314.92 245.341ZM1328.04 223.182V245H1325.52V223.182H1328.04ZM1339.5 245.341C1337.93 245.341 1336.57 244.993 1335.42 244.297C1334.29 243.594 1333.41 242.614 1332.79 241.357C1332.18 240.092 1331.87 238.622 1331.87 236.946C1331.87 235.27 1332.18 233.793 1332.79 232.514C1333.41 231.229 1334.27 230.227 1335.37 229.51C1336.48 228.786 1337.77 228.423 1339.25 228.423C1340.1 228.423 1340.94 228.565 1341.77 228.849C1342.6 229.134 1343.36 229.595 1344.04 230.234C1344.72 230.866 1345.27 231.705 1345.67 232.749C1346.08 233.793 1346.28 235.078 1346.28 236.605V237.67H1333.66V235.497H1343.72C1343.72 234.574 1343.54 233.75 1343.17 233.026C1342.81 232.301 1342.29 231.729 1341.61 231.31C1340.94 230.891 1340.16 230.682 1339.25 230.682C1338.25 230.682 1337.38 230.93 1336.65 231.428C1335.92 231.918 1335.37 232.557 1334.98 233.345C1334.58 234.134 1334.39 234.979 1334.39 235.881V237.33C1334.39 238.565 1334.6 239.613 1335.03 240.472C1335.46 241.325 1336.06 241.974 1336.83 242.422C1337.6 242.862 1338.49 243.082 1339.5 243.082C1340.16 243.082 1340.76 242.99 1341.29 242.805C1341.83 242.614 1342.3 242.33 1342.69 241.953C1343.08 241.57 1343.38 241.094 1343.59 240.526L1346.02 241.207C1345.77 242.031 1345.34 242.756 1344.73 243.381C1344.13 243.999 1343.38 244.482 1342.5 244.83C1341.61 245.17 1340.61 245.341 1339.5 245.341ZM1356.75 245.341C1355.22 245.341 1353.9 244.979 1352.79 244.254C1351.68 243.53 1350.83 242.532 1350.23 241.261C1349.63 239.989 1349.34 238.537 1349.34 236.903C1349.34 235.241 1349.64 233.775 1350.25 232.504C1350.87 231.225 1351.73 230.227 1352.83 229.51C1353.94 228.786 1355.23 228.423 1356.71 228.423C1357.86 228.423 1358.9 228.636 1359.82 229.062C1360.74 229.489 1361.5 230.085 1362.09 230.852C1362.68 231.619 1363.04 232.514 1363.19 233.537H1360.67C1360.48 232.791 1360.05 232.131 1359.39 231.555C1358.74 230.973 1357.86 230.682 1356.75 230.682C1355.77 230.682 1354.91 230.937 1354.17 231.449C1353.44 231.953 1352.87 232.667 1352.46 233.59C1352.05 234.506 1351.85 235.582 1351.85 236.818C1351.85 238.082 1352.05 239.183 1352.45 240.121C1352.85 241.058 1353.42 241.786 1354.15 242.305C1354.89 242.823 1355.76 243.082 1356.75 243.082C1357.4 243.082 1358 242.969 1358.53 242.741C1359.06 242.514 1359.51 242.188 1359.88 241.761C1360.25 241.335 1360.51 240.824 1360.67 240.227H1363.19C1363.04 241.193 1362.69 242.063 1362.13 242.837C1361.58 243.604 1360.84 244.215 1359.93 244.67C1359.02 245.117 1357.96 245.341 1356.75 245.341ZM1373.98 228.636V230.767H1365.5V228.636H1373.98ZM1367.97 224.716H1370.48V240.312C1370.48 241.023 1370.59 241.555 1370.79 241.911C1371 242.259 1371.27 242.493 1371.6 242.614C1371.94 242.727 1372.29 242.784 1372.66 242.784C1372.93 242.784 1373.16 242.77 1373.34 242.741C1373.52 242.706 1373.66 242.678 1373.76 242.656L1374.28 244.915C1374.11 244.979 1373.87 245.043 1373.56 245.107C1373.26 245.178 1372.87 245.213 1372.4 245.213C1371.69 245.213 1370.99 245.06 1370.31 244.755C1369.64 244.45 1369.08 243.984 1368.63 243.359C1368.19 242.734 1367.97 241.946 1367.97 240.994V224.716ZM1387.43 245H1384.66L1392.67 223.182H1395.4L1403.41 245H1400.64L1394.12 226.634H1393.95L1387.43 245ZM1388.46 236.477H1399.62V238.821H1388.46V236.477ZM1412.65 245.341C1411.29 245.341 1410.08 244.996 1409.04 244.308C1407.99 243.612 1407.18 242.631 1406.59 241.367C1406 240.096 1405.7 238.594 1405.7 236.861C1405.7 235.142 1406 233.651 1406.59 232.386C1407.18 231.122 1408 230.146 1409.05 229.457C1410.1 228.768 1411.31 228.423 1412.69 228.423C1413.76 228.423 1414.6 228.601 1415.22 228.956C1415.84 229.304 1416.32 229.702 1416.64 230.149C1416.98 230.589 1417.24 230.952 1417.42 231.236H1417.63V223.182H1420.15V245H1417.72V242.486H1417.42C1417.24 242.784 1416.97 243.161 1416.63 243.615C1416.29 244.062 1415.81 244.464 1415.17 244.819C1414.54 245.167 1413.7 245.341 1412.65 245.341ZM1412.99 243.082C1414 243.082 1414.85 242.82 1415.55 242.294C1416.24 241.761 1416.77 241.026 1417.13 240.089C1417.5 239.144 1417.68 238.054 1417.68 236.818C1417.68 235.597 1417.5 234.528 1417.14 233.612C1416.79 232.688 1416.26 231.971 1415.57 231.46C1414.87 230.941 1414.01 230.682 1412.99 230.682C1411.92 230.682 1411.04 230.955 1410.33 231.502C1409.62 232.042 1409.09 232.777 1408.74 233.707C1408.39 234.631 1408.22 235.668 1408.22 236.818C1408.22 237.983 1408.39 239.041 1408.75 239.993C1409.11 240.937 1409.64 241.69 1410.35 242.251C1411.06 242.805 1411.94 243.082 1412.99 243.082ZM1431.28 245.341C1429.92 245.341 1428.71 244.996 1427.67 244.308C1426.63 243.612 1425.81 242.631 1425.22 241.367C1424.63 240.096 1424.34 238.594 1424.34 236.861C1424.34 235.142 1424.63 233.651 1425.22 232.386C1425.81 231.122 1426.63 230.146 1427.68 229.457C1428.73 228.768 1429.95 228.423 1431.32 228.423C1432.39 228.423 1433.23 228.601 1433.85 228.956C1434.47 229.304 1434.95 229.702 1435.28 230.149C1435.61 230.589 1435.87 230.952 1436.05 231.236H1436.27V223.182H1438.78V245H1436.35V242.486H1436.05C1435.87 242.784 1435.61 243.161 1435.27 243.615C1434.93 244.062 1434.44 244.464 1433.81 244.819C1433.17 245.167 1432.33 245.341 1431.28 245.341ZM1431.62 243.082C1432.63 243.082 1433.48 242.82 1434.18 242.294C1434.88 241.761 1435.4 241.026 1435.77 240.089C1436.13 239.144 1436.31 238.054 1436.31 236.818C1436.31 235.597 1436.13 234.528 1435.78 233.612C1435.42 232.688 1434.9 231.971 1434.2 231.46C1433.5 230.941 1432.65 230.682 1431.62 230.682C1430.56 230.682 1429.67 230.955 1428.96 231.502C1428.26 232.042 1427.73 232.777 1427.37 233.707C1427.02 234.631 1426.85 235.668 1426.85 236.818C1426.85 237.983 1427.03 239.041 1427.38 239.993C1427.74 240.937 1428.28 241.69 1428.98 242.251C1429.69 242.805 1430.57 243.082 1431.62 243.082ZM1443.74 245V228.636H1446.16V231.108H1446.34C1446.63 230.298 1447.17 229.641 1447.95 229.137C1448.74 228.633 1449.62 228.381 1450.6 228.381C1450.78 228.381 1451.01 228.384 1451.29 228.391C1451.57 228.398 1451.78 228.409 1451.92 228.423V230.98C1451.83 230.959 1451.64 230.927 1451.33 230.884C1451.03 230.835 1450.72 230.81 1450.38 230.81C1449.59 230.81 1448.88 230.977 1448.25 231.31C1447.63 231.637 1447.14 232.092 1446.78 232.674C1446.43 233.249 1446.25 233.906 1446.25 234.645V245H1443.74ZM1461.26 245.341C1459.68 245.341 1458.32 244.993 1457.18 244.297C1456.04 243.594 1455.17 242.614 1454.55 241.357C1453.94 240.092 1453.63 238.622 1453.63 236.946C1453.63 235.27 1453.94 233.793 1454.55 232.514C1455.17 231.229 1456.03 230.227 1457.13 229.51C1458.23 228.786 1459.53 228.423 1461 228.423C1461.86 228.423 1462.7 228.565 1463.53 228.849C1464.36 229.134 1465.12 229.595 1465.8 230.234C1466.48 230.866 1467.02 231.705 1467.43 232.749C1467.83 233.793 1468.04 235.078 1468.04 236.605V237.67H1455.42V235.497H1465.48C1465.48 234.574 1465.29 233.75 1464.93 233.026C1464.56 232.301 1464.04 231.729 1463.37 231.31C1462.7 230.891 1461.91 230.682 1461 230.682C1460 230.682 1459.14 230.93 1458.41 231.428C1457.68 231.918 1457.12 232.557 1456.73 233.345C1456.34 234.134 1456.15 234.979 1456.15 235.881V237.33C1456.15 238.565 1456.36 239.613 1456.79 240.472C1457.22 241.325 1457.82 241.974 1458.59 242.422C1459.35 242.862 1460.24 243.082 1461.26 243.082C1461.92 243.082 1462.52 242.99 1463.05 242.805C1463.59 242.614 1464.06 242.33 1464.45 241.953C1464.84 241.57 1465.14 241.094 1465.35 240.526L1467.78 241.207C1467.52 242.031 1467.1 242.756 1466.49 243.381C1465.89 243.999 1465.14 244.482 1464.25 244.83C1463.37 245.17 1462.37 245.341 1461.26 245.341ZM1483.45 232.301L1481.19 232.94C1481.05 232.564 1480.84 232.198 1480.56 231.843C1480.29 231.481 1479.93 231.183 1479.46 230.948C1478.99 230.714 1478.39 230.597 1477.66 230.597C1476.65 230.597 1475.82 230.827 1475.15 231.289C1474.49 231.744 1474.16 232.322 1474.16 233.026C1474.16 233.651 1474.39 234.144 1474.84 234.506C1475.3 234.869 1476.01 235.17 1476.97 235.412L1479.4 236.009C1480.87 236.364 1481.96 236.907 1482.67 237.638C1483.39 238.363 1483.75 239.297 1483.75 240.44C1483.75 241.378 1483.48 242.216 1482.94 242.955C1482.41 243.693 1481.66 244.276 1480.7 244.702C1479.74 245.128 1478.63 245.341 1477.36 245.341C1475.69 245.341 1474.31 244.979 1473.21 244.254C1472.12 243.53 1471.43 242.472 1471.14 241.08L1473.52 240.483C1473.75 241.364 1474.18 242.024 1474.81 242.464C1475.45 242.905 1476.29 243.125 1477.32 243.125C1478.49 243.125 1479.42 242.876 1480.11 242.379C1480.8 241.875 1481.15 241.271 1481.15 240.568C1481.15 240 1480.95 239.524 1480.55 239.141C1480.16 238.75 1479.55 238.459 1478.72 238.267L1475.99 237.628C1474.5 237.273 1473.39 236.722 1472.69 235.977C1472 235.224 1471.65 234.283 1471.65 233.153C1471.65 232.23 1471.91 231.413 1472.43 230.703C1472.95 229.993 1473.66 229.435 1474.57 229.031C1475.48 228.626 1476.51 228.423 1477.66 228.423C1479.28 228.423 1480.55 228.778 1481.47 229.489C1482.4 230.199 1483.06 231.136 1483.45 232.301ZM1499.13 232.301L1496.87 232.94C1496.72 232.564 1496.52 232.198 1496.24 231.843C1495.97 231.481 1495.6 231.183 1495.13 230.948C1494.66 230.714 1494.06 230.597 1493.33 230.597C1492.33 230.597 1491.49 230.827 1490.83 231.289C1490.17 231.744 1489.84 232.322 1489.84 233.026C1489.84 233.651 1490.06 234.144 1490.52 234.506C1490.97 234.869 1491.68 235.17 1492.65 235.412L1495.08 236.009C1496.54 236.364 1497.63 236.907 1498.35 237.638C1499.07 238.363 1499.42 239.297 1499.42 240.44C1499.42 241.378 1499.15 242.216 1498.61 242.955C1498.08 243.693 1497.34 244.276 1496.38 244.702C1495.42 245.128 1494.3 245.341 1493.03 245.341C1491.36 245.341 1489.98 244.979 1488.89 244.254C1487.79 243.53 1487.1 242.472 1486.81 241.08L1489.2 240.483C1489.42 241.364 1489.85 242.024 1490.49 242.464C1491.12 242.905 1491.96 243.125 1492.99 243.125C1494.16 243.125 1495.09 242.876 1495.78 242.379C1496.48 241.875 1496.82 241.271 1496.82 240.568C1496.82 240 1496.63 239.524 1496.23 239.141C1495.83 238.75 1495.22 238.459 1494.4 238.267L1491.67 237.628C1490.17 237.273 1489.07 236.722 1488.37 235.977C1487.67 235.224 1487.32 234.283 1487.32 233.153C1487.32 232.23 1487.58 231.413 1488.1 230.703C1488.62 229.993 1489.34 229.435 1490.24 229.031C1491.15 228.626 1492.18 228.423 1493.33 228.423C1494.95 228.423 1496.22 228.778 1497.14 229.489C1498.07 230.199 1498.73 231.136 1499.13 232.301Z" fill="#353535"/>
<defs>
<filter id="filter0_d_3_390" x="16.274" y="0.000976562" width="215" height="220" filterUnits="userSpaceOnUse" color-interpolation-filters="sRGB">
<feFlood flood-opacity="0" result="BackgroundImageFix"/>
<feColorMatrix in="SourceAlpha" type="matrix" values="0 0 0 0 0 0 0 0 0 0 0 0 0 0 0 0 0 0 127 0" result="hardAlpha"/>
<feOffset dy="2"/>
<feGaussianBlur stdDeviation="8.5"/>
<feColorMatrix type="matrix" values="0 0 0 0 0 0 0 0 0 0 0 0 0 0 0 0 0 0 0.129 0"/>
<feBlend mode="normal" in2="BackgroundImageFix" result="effect1_dropShadow_3_390"/>
<feBlend mode="normal" in="SourceGraphic" in2="effect1_dropShadow_3_390" result="shape"/>
</filter>
<filter id="filter1_d_3_390" x="437.275" y="0.000976562" width="215" height="220" filterUnits="userSpaceOnUse" color-interpolation-filters="sRGB">
<feFlood flood-opacity="0" result="BackgroundImageFix"/>
<feColorMatrix in="SourceAlpha" type="matrix" values="0 0 0 0 0 0 0 0 0 0 0 0 0 0 0 0 0 0 127 0" result="hardAlpha"/>
<feOffset dy="2"/>
<feGaussianBlur stdDeviation="8.5"/>
<feColorMatrix type="matrix" values="0 0 0 0 0 0 0 0 0 0 0 0 0 0 0 0 0 0 0.129 0"/>
<feBlend mode="normal" in2="BackgroundImageFix" result="effect1_dropShadow_3_390"/>
<feBlend mode="normal" in="SourceGraphic" in2="effect1_dropShadow_3_390" result="shape"/>
</filter>
<filter id="filter2_d_3_390" x="858.274" y="0.000976562" width="215" height="220" filterUnits="userSpaceOnUse" color-interpolation-filters="sRGB">
<feFlood flood-opacity="0" result="BackgroundImageFix"/>
<feColorMatrix in="SourceAlpha" type="matrix" values="0 0 0 0 0 0 0 0 0 0 0 0 0 0 0 0 0 0 127 0" result="hardAlpha"/>
<feOffset dy="2"/>
<feGaussianBlur stdDeviation="8.5"/>
<feColorMatrix type="matrix" values="0 0 0 0 0 0 0 0 0 0 0 0 0 0 0 0 0 0 0.129 0"/>
<feBlend mode="normal" in2="BackgroundImageFix" result="effect1_dropShadow_3_390"/>
<feBlend mode="normal" in="SourceGraphic" in2="effect1_dropShadow_3_390" result="shape"/>
</filter>
<filter id="filter3_d_3_390" x="1299" y="14" width="215" height="220" filterUnits="userSpaceOnUse" color-interpolation-filters="sRGB">
<feFlood flood-opacity="0" result="BackgroundImageFix"/>
<feColorMatrix in="SourceAlpha" type="matrix" values="0 0 0 0 0 0 0 0 0 0 0 0 0 0 0 0 0 0 127 0" result="hardAlpha"/>
<feOffset dy="2"/>
<feGaussianBlur stdDeviation="8.5"/>
<feColorMatrix type="matrix" values="0 0 0 0 0 0 0 0 0 0 0 0 0 0 0 0 0 0 0.129 0"/>
<feBlend mode="normal" in2="BackgroundImageFix" result="effect1_dropShadow_3_390"/>
<feBlend mode="normal" in="SourceGraphic" in2="effect1_dropShadow_3_390" result="shape"/>
</filter>
</defs>
</svg>
