<svg width="49" height="49" viewBox="0 0 49 49" fill="none" xmlns="http://www.w3.org/2000/svg">
<path d="M48.288 24.8172C48.2864 20.2035 46.9629 15.6868 44.4742 11.8019C41.9854 7.91702 38.4357 4.82651 34.2452 2.89626C30.0547 0.966012 25.3989 0.276841 20.8289 0.910333C16.2589 1.54382 11.9661 3.47345 8.4586 6.47079C4.95115 9.46813 2.37594 13.4077 1.0378 17.8231C-0.300331 22.2384 -0.345349 26.9448 0.908077 31.385C2.1615 35.8251 4.66089 39.8132 8.11036 42.8771C11.5598 45.941 15.8149 47.9524 20.372 48.6732V31.7962H14.239V24.8172H20.372V19.4972C20.372 13.4462 23.972 10.1042 29.491 10.1042C31.3034 10.1284 33.1115 10.2851 34.901 10.5732V16.5122H31.851C28.851 16.5122 27.917 18.3732 27.917 20.2832V24.8152H34.617L33.546 31.7942H27.917V48.6732C33.5966 47.7729 38.7686 44.8758 42.5028 40.5027C46.2371 36.1296 48.2884 30.5677 48.288 24.8172Z" fill="white"/>
</svg>
