<svg xmlns="http://www.w3.org/2000/svg" width="49.195" height="51.626" viewBox="0 0 49.195 51.626">
  <defs>
    <style>
      .cls-1 {
        fill: #b6bed4;
        stroke: #b6bed4;
      }
    </style>
  </defs>
  <g id="Group_236" data-name="Group 236" transform="translate(0.5 0.5)">
    <path id="Path_80" data-name="Path 80" class="cls-1" d="M14.124,27.787V1.874a1.884,1.884,0,0,0-3.768,0V27.787a7.3,7.3,0,0,0,0,14.131V47.73a1.884,1.884,0,0,0,3.768,0V41.918a7.3,7.3,0,0,0,0-14.131ZM12.24,38.425a3.572,3.572,0,1,1,3.572-3.57A3.575,3.575,0,0,1,12.24,38.425Z" transform="translate(11.856 0.511)"/>
    <path id="Path_81" data-name="Path 81" class="cls-1" d="M27.108,14.153a7.335,7.335,0,0,0-5.46-7.066V2.1a1.884,1.884,0,0,0-3.768,0V7.087a7.3,7.3,0,0,0,0,14.134V47.955a1.884,1.884,0,1,0,3.768,0V21.22A7.335,7.335,0,0,0,27.108,14.153Zm-7.344,3.574a3.573,3.573,0,1,1,3.574-3.574A3.579,3.579,0,0,1,19.764,17.727Z" transform="translate(21.087 0.787)"/>
    <path id="Path_82" data-name="Path 82" class="cls-1" d="M6.6,6.639V1.649a1.884,1.884,0,1,0-3.768,0v4.99a7.3,7.3,0,0,0,0,14.131V47.505a1.884,1.884,0,0,0,3.768,0V20.77a7.3,7.3,0,0,0,0-14.131ZM4.716,17.279A3.573,3.573,0,1,1,8.288,13.7,3.578,3.578,0,0,1,4.716,17.279Z" transform="translate(2.626 0.235)"/>
  </g>
</svg>
