<svg width="51" height="52" viewBox="0 0 51 52" fill="none" xmlns="http://www.w3.org/2000/svg">
<path d="M25.357 51.6731C39.2934 51.6731 50.591 40.2564 50.591 26.1731C50.591 12.0898 39.2934 0.673096 25.357 0.673096C11.4207 0.673096 0.123047 12.0898 0.123047 26.1731C0.123047 40.2564 11.4207 51.6731 25.357 51.6731Z" fill="white"/>
<path d="M25.3611 19.2061C27.6071 19.2061 27.8731 19.2141 28.7611 19.2561C31.0421 19.3561 32.1051 20.4561 32.2101 22.7401C32.2491 23.6401 32.2581 23.9041 32.2581 26.1741C32.2581 28.4441 32.2501 28.7131 32.2101 29.6081C32.1051 31.8931 31.0441 32.9881 28.7611 33.0931C27.8741 33.1331 27.6091 33.1431 25.3611 33.1431C23.1131 33.1431 22.8491 33.1341 21.9611 33.0931C19.6741 32.9861 18.6151 31.8891 18.5101 29.6061C18.4711 28.7121 18.4611 28.4431 18.4611 26.1731C18.4611 23.9031 18.4711 23.6341 18.5101 22.7391C18.6141 20.4511 19.6761 19.3591 21.9611 19.2541C22.8451 19.2131 23.1111 19.2061 25.3611 19.2061Z" fill="#3915A4"/>
<path d="M24.678 10.1172C20.573 10.1172 20.062 10.1352 18.447 10.2102C12.957 10.4622 9.91002 13.5072 9.65802 18.9972C9.58502 20.6122 9.56702 21.1252 9.56702 25.2282C9.56702 29.3312 9.58502 29.8472 9.65802 31.4592C9.91002 36.9472 12.958 39.9972 18.448 40.2492C20.062 40.3222 20.574 40.3402 24.679 40.3402C28.784 40.3402 29.298 40.3222 30.912 40.2492C36.392 39.9972 39.452 36.9492 39.699 31.4592C39.772 29.8472 39.79 29.3332 39.79 25.2282C39.79 21.1232 39.772 20.6122 39.699 18.9972C39.452 13.5172 36.402 10.4602 30.911 10.2102C29.297 10.1352 28.783 10.1172 24.678 10.1172Z" fill="#1D1F46"/>
<path d="M24.6791 17.4692C23.1443 17.4692 21.644 17.9244 20.3678 18.777C19.0917 19.6297 18.0971 20.8417 17.5098 22.2596C16.9224 23.6776 16.7688 25.2378 17.0682 26.7431C17.3676 28.2484 18.1067 29.6311 19.1919 30.7164C20.2772 31.8016 21.6599 32.5407 23.1652 32.8401C24.6705 33.1396 26.2307 32.9859 27.6487 32.3985C29.0666 31.8112 30.2786 30.8166 31.1313 29.5405C31.984 28.2643 32.4391 26.764 32.4391 25.2292C32.4391 23.1712 31.6215 21.1974 30.1662 19.7421C28.7109 18.2868 26.7372 17.4692 24.6791 17.4692V17.4692Z" fill="white"/>
<path d="M24.678 30.2652C23.6819 30.2646 22.7084 29.9687 21.8805 29.4148C21.0525 28.861 20.4074 28.0741 20.0266 27.1537C19.6458 26.2332 19.5465 25.2205 19.7412 24.2437C19.9359 23.2668 20.4159 22.3695 21.1204 21.6654C21.825 20.9613 22.7225 20.4818 23.6995 20.2877C24.6765 20.0936 25.6891 20.1935 26.6093 20.5749C27.5295 20.9562 28.316 21.6018 28.8694 22.4301C29.4227 23.2583 29.718 24.2321 29.718 25.2282C29.7182 25.8899 29.5879 26.5452 29.3346 27.1566C29.0813 27.768 28.71 28.3234 28.242 28.7912C27.7739 29.259 27.2182 29.63 26.6067 29.8829C25.9952 30.1358 25.3398 30.2657 24.678 30.2652Z" fill="#1D1F46"/>
<path d="M32.742 15.3501C32.3836 15.3507 32.0333 15.4575 31.7356 15.6571C31.4378 15.8567 31.2059 16.14 31.0692 16.4714C30.9324 16.8027 30.8969 17.1671 30.9672 17.5186C31.0375 17.8701 31.2104 18.1929 31.4641 18.4461C31.7178 18.6994 32.0408 18.8718 32.3924 18.9415C32.744 19.0112 33.1084 18.9751 33.4395 18.8378C33.7706 18.7005 34.0536 18.4681 34.2527 18.17C34.4518 17.872 34.558 17.5215 34.558 17.1631C34.5579 16.9248 34.5108 16.6889 34.4194 16.4688C34.3281 16.2487 34.1943 16.0487 34.0256 15.8803C33.857 15.712 33.6568 15.5785 33.4366 15.4875C33.2163 15.3965 32.9803 15.3498 32.742 15.3501V15.3501Z" fill="white"/>
</svg>
