<svg width="424" height="41" viewBox="0 0 424 41" fill="none" xmlns="http://www.w3.org/2000/svg">
<path d="M82.713 10.975H91.781V22.975C91.781 25.331 91.131 30.758 85.248 30.758C80.763 30.758 78.683 28.402 78.683 23.332V22.222H71.045V23.329C71.045 32.755 76.603 38.829 85.245 38.829C93.76 38.829 99.481 32.438 99.481 22.941V2.90601H82.713V10.975Z" fill="white"/>
<path d="M123.503 23.0009C123.503 28.1419 121.26 30.9629 117.198 30.9629C112.908 30.9629 110.438 28.0709 110.438 23.0009V2.97095H102.767V23.0009C102.767 32.6409 108.422 38.8889 117.133 38.8889C125.778 38.8889 131.174 32.8189 131.174 23.0009V2.97095H123.504L123.503 23.0009Z" fill="white"/>
<path d="M147.684 15.818C143.524 15.284 141.899 14.43 141.899 12.793C141.899 10.765 143.849 9.55503 147.099 9.55503C150.057 9.55503 152.527 11.155 153.339 12.686L153.827 13.576L160.067 10.053L159.612 9.05303C157.5 4.36003 153.112 1.90503 146.872 1.90503C140.566 1.94103 134.229 5.28503 134.229 12.615C134.229 20.905 140.664 22.863 146.936 23.682C152.981 24.394 152.981 26.671 152.981 27.418C152.981 30.941 148.463 31.225 147.098 31.225C143.427 31.225 140.636 29.553 139.591 26.705L139.168 25.566L132.636 29.268L132.994 30.229C135.171 36.135 139.786 39.018 147.036 39.018C155.454 39.018 160.687 34.57 160.687 27.418C160.685 17.561 151.91 16.387 147.684 15.818Z" fill="white"/>
<path d="M161.27 10.846H170.793V38.246H178.528V10.846H188.051V2.90601H161.27V10.846Z" fill="white"/>
<path d="M211.127 15.818C206.967 15.284 205.342 14.43 205.342 12.793C205.342 10.765 207.292 9.55503 210.542 9.55503C213.5 9.55503 215.97 11.155 216.782 12.686L217.27 13.576L223.51 10.053L223.055 9.05303C220.943 4.36003 216.555 1.90503 210.315 1.90503C204.009 1.94103 197.672 5.28503 197.672 12.615C197.672 20.905 204.107 22.863 210.379 23.682C216.424 24.394 216.424 26.671 216.424 27.418C216.424 30.941 211.906 31.225 210.541 31.225C206.87 31.225 204.079 29.553 203.034 26.705L202.611 25.566L196.079 29.268L196.437 30.229C198.614 36.135 203.229 39.018 210.479 39.018C218.897 39.018 224.13 34.57 224.13 27.418C224.128 17.561 215.353 16.387 211.127 15.818Z" fill="white"/>
<path d="M231.213 38.207H222.828L237.228 2.90698H244.735L259.128 38.207H250.713L248.176 31.985H233.776L231.213 38.207ZM240.998 13.816L236.966 23.939H244.994L240.994 13.816H240.998Z" fill="white"/>
<path d="M267.843 15.567L260.725 2.90601H252.405V4.65901L263.943 23.793V38.242H271.678V23.793L283.639 4.65901V2.90601H275.221L267.843 15.567Z" fill="white"/>
<path d="M323.779 24.33L317.051 2.90601H311.883L305.35 24.33L298.98 2.90601H290.432L302.198 38.242H308.438L312.338 27.226L314.516 19.858L316.726 27.083L320.726 38.242H326.966L338.502 2.90601H329.954L323.779 24.33Z" fill="white"/>
<path d="M359.986 16.8849H347.242V2.97095H339.542V38.2709H347.242V24.8969H359.986V38.2709H367.656V2.97095H359.986V16.8849Z" fill="white"/>
<path d="M376.79 38.207H368.405L382.805 2.90698H390.305L404.705 38.207H396.288L393.754 31.985H379.354L376.79 38.207ZM386.573 13.812L382.543 23.939H390.571L386.573 13.812Z" fill="white"/>
<path d="M396.843 2.90601V10.846H406.399V38.246H414.099V10.846H423.622V2.90601H396.843Z" fill="white"/>
<path d="M32.469 22.95C32.469 33.315 26.391 40.859 16.218 40.859C6.76 40.859 0 34.725 0 23.408H6.858C6.858 30.282 9.913 33.773 16.186 33.773C22.524 33.773 25.486 29.014 25.486 22.95V7.051H14.333V0H32.433V22.95H32.469Z" fill="white"/>
<path d="M62.988 22.5499C62.6543 21.5358 62.1604 20.5818 61.525 19.7239C60.6848 18.6568 59.5895 17.8184 58.34 17.2859C56.5941 16.5444 54.7138 16.1716 52.817 16.1909H52.752C50.574 16.1559 44.042 15.6959 43.944 15.6959H43.911C40.011 15.6959 39.686 14.1059 39.621 11.6689C39.5817 10.9665 39.658 10.2625 39.847 9.5849L39.88 9.4439C40.0261 8.6765 40.426 7.98053 41.0155 7.46795C41.605 6.95537 42.3498 6.65596 43.13 6.6179H54.017C57.04 6.5829 57.202 8.7729 57.332 10.3629C57.3475 10.6956 57.3909 11.0265 57.462 11.3519L57.592 11.7409L63.182 11.8119L63.247 11.3169C63.28 11.1399 63.962 6.5829 61.427 3.3329C59.803 1.2479 57.203 0.2239 53.758 0.2579H42.577C41.2507 0.276961 39.9501 0.626128 38.7925 1.27386C37.635 1.92159 36.657 2.84748 35.947 3.9679C32.989 8.0659 33.932 14.0359 34.062 14.7779C34.1518 16.0739 34.6136 17.3164 35.3919 18.3566C36.1702 19.3967 37.232 20.1902 38.45 20.6419L38.58 20.6769C40.6158 21.2494 42.7064 21.6051 44.817 21.7379L53.235 22.3029C56.388 22.5859 57.688 26.4719 57.688 26.5029C58.0313 28.0451 58.1084 29.6347 57.916 31.2029V31.3089C57.9472 31.8767 57.7839 32.4382 57.4531 32.9007C57.1222 33.3632 56.6435 33.6991 56.096 33.8529C55.283 33.8179 54.731 33.3939 54.666 31.6629C54.634 30.8499 54.666 29.2629 54.666 28.9429V28.8719C54.5411 27.3802 53.9147 25.9747 52.8889 24.8844C51.8631 23.7942 50.4984 23.0834 49.017 22.8679C45.929 22.5849 42.224 23.9679 41.509 27.7079C41.3567 29.0689 41.3133 30.44 41.379 31.8079C41.379 32.5849 41.412 33.5739 41.346 34.0689C41.1699 34.0761 40.9938 34.0521 40.826 33.9979C40.306 33.7859 40.046 32.6909 40.013 32.3729C39.85 29.8999 40.013 22.3399 40.013 22.2729V21.6729H34.257L34.457 32.6949C34.4513 34.0741 34.7511 35.4374 35.335 36.6869C35.8262 37.7543 36.6222 38.6526 37.6227 39.2687C38.6233 39.8847 39.7838 40.191 40.958 40.1489H41.277C46.607 40.1489 46.835 35.9799 46.835 35.9489V35.9139L46.802 30.4379C46.867 29.7309 47.712 29.5549 48.202 29.5549C48.917 29.5549 49.702 29.9079 49.762 30.5439C49.795 30.9329 49.795 31.1799 49.795 31.6439V32.5619C49.795 33.6219 49.795 34.6459 49.828 34.9619C49.8128 35.6983 49.9557 36.4295 50.2473 37.1059C50.5388 37.7823 50.9722 38.3883 51.518 38.8829C52.7872 39.8371 54.3526 40.3123 55.938 40.2249C56.736 40.2353 57.5324 40.1524 58.311 39.9779C63.641 38.8779 63.966 31.3939 63.966 31.0779C64.1216 28.2005 63.7909 25.3174 62.988 22.5499Z" fill="white"/>
</svg>
