<svg width="51" height="52" viewBox="0 0 51 52" fill="none" xmlns="http://www.w3.org/2000/svg">
<path d="M25.706 51.6731C39.6424 51.6731 50.94 40.2564 50.94 26.1731C50.94 12.0898 39.6424 0.673096 25.706 0.673096C11.7697 0.673096 0.472046 12.0898 0.472046 26.1731C0.472046 40.2564 11.7697 51.6731 25.706 51.6731Z" fill="white"/>
<path d="M41.3001 16.947C40.1254 17.4731 38.878 17.8186 37.6001 17.972C38.9488 17.1545 39.9556 15.8759 40.4341 14.373C39.1719 15.1298 37.7886 15.6633 36.3451 15.95C35.7467 15.3018 35.0205 14.7845 34.2122 14.4308C33.404 14.0772 32.5313 13.8947 31.6491 13.895C30.6737 13.9032 29.7126 14.1308 28.8372 14.561C27.9617 14.9911 27.1943 15.6128 26.5918 16.3799C25.9893 17.1471 25.5672 18.0399 25.3567 18.9924C25.1463 19.9449 25.1529 20.9325 25.3761 21.882C22.8102 21.748 20.3018 21.0729 18.0153 19.901C15.7288 18.729 13.716 17.0868 12.1091 15.082C11.2843 16.5149 11.0314 18.2065 11.401 19.8179C11.7706 21.4294 12.7354 22.8417 14.1021 23.772C13.0798 23.7383 12.0807 23.4591 11.1891 22.958C11.1662 24.4668 11.6689 25.9366 12.6111 27.1152C13.5533 28.2939 14.8763 29.108 16.3531 29.418C15.4055 29.6782 14.4107 29.7162 13.4461 29.529C13.8509 30.8158 14.6488 31.9433 15.7274 32.7533C16.8061 33.5633 18.1115 34.0151 19.4601 34.045C18.128 35.103 16.5992 35.8862 14.9623 36.3491C13.3254 36.8121 11.6129 36.9456 9.92407 36.742C12.8598 38.6514 16.2871 39.6666 19.7891 39.664C31.7431 39.664 38.4941 29.464 38.0891 20.313C39.353 19.3925 40.4413 18.2524 41.3021 16.947H41.3001Z" fill="#1C1E45"/>
</svg>
